<?xml version="1.0" encoding="UTF-8" standalone="no"?>
<!DOCTYPE svg PUBLIC "-//W3C//DTD SVG 1.1//EN" "http://www.w3.org/Graphics/SVG/1.1/DTD/svg11.dtd">
<svg width="100%" height="100%" viewBox="0 0 1000 1000" version="1.1" xmlns="http://www.w3.org/2000/svg" xmlns:xlink="http://www.w3.org/1999/xlink" xml:space="preserve" xmlns:serif="http://www.serif.com/" style="fill-rule:evenodd;clip-rule:evenodd;stroke-linejoin:round;stroke-miterlimit:2;">
    <g transform="matrix(1,0,0,1,49.7876,41.4027)">
        <g>
            <g transform="matrix(3.32513,0,0,3.32513,-0.493783,-0.1137)">
                <path d="M204.575,170.526C205.974,170.06 206.957,170.26 207.523,171.126L208.572,168.528C211.004,172.025 212.003,179.903 211.57,192.161C211.07,206.117 208.489,218.575 203.825,229.534C197.763,243.657 192.334,250.835 187.537,251.068L185.239,251.318L175.296,250.718C170.167,250.085 166.969,249.369 165.703,248.57L153.662,230.233C153.595,228.601 155.844,224.571 160.407,218.142C164.437,212.413 169.317,206.134 175.046,199.306C181.042,192.144 186.588,186.015 191.684,180.919C197.68,174.89 201.977,171.426 204.575,170.526" style="fill:rgb(13,19,26);fill-rule:nonzero;"/>
            </g>
            <g transform="matrix(3.32513,0,0,3.32513,-0.493783,-0.1137)">
                <path d="M163.255,240.576C168.118,234.513 174.663,229.417 182.891,225.287C191.551,220.957 198.629,219.541 204.125,221.04C203.159,224.737 202.01,228.251 200.678,231.582C197.713,239.11 194.865,244.173 192.134,246.771C190.535,248.27 188.62,249.07 186.388,249.169L185.289,249.269L175.496,248.52C170.5,247.754 167.452,247.038 166.353,246.371C165.853,246.072 164.937,244.406 163.605,241.375L163.255,240.576L163.205,240.576L163.205,240.526L163.255,240.576" style="fill:rgb(93,193,207);fill-rule:nonzero;"/>
            </g>
            <g transform="matrix(3.32513,0,0,3.32513,-0.493783,-0.1137)">
                <path d="M206.374,171.925C208.006,174.29 208.739,180.253 208.572,189.812C208.372,200.538 206.89,210.947 204.125,221.04C198.629,219.541 191.551,220.957 182.891,225.287C174.663,229.417 168.101,234.513 163.205,240.576L163.205,240.526C161.839,237.594 160.673,235.429 159.707,234.03C158.209,231.865 156.66,230.566 155.061,230.133L155.061,230.033C155.061,228.867 156.793,225.786 160.257,220.79C164.021,215.294 168.834,208.999 174.697,201.904C181.125,194.143 187.021,187.564 192.384,182.168C197.713,176.805 201.66,173.491 204.225,172.225C205.391,171.592 206.107,171.492 206.374,171.925" style="fill:rgb(80,168,180);fill-rule:nonzero;"/>
            </g>
            <g transform="matrix(3.32513,0,0,3.32513,-0.493783,-0.1137)">
                <path d="M205.274,186.565C206.607,188.13 207.273,189.396 207.273,190.362L207.223,190.762C205.957,196.224 203.992,201.138 201.327,205.501C199.062,209.198 195.631,213.445 191.035,218.242C188.137,221.273 183.54,224.287 177.245,227.285C170.25,230.616 163.088,232.948 155.76,234.28L157.509,247.371C158.209,253.833 158.558,258.646 158.558,261.81C158.558,262.71 158.292,263.676 157.759,264.708C157.426,265.874 156.793,266.707 155.86,267.206C153.362,268.572 148.749,269.638 142.02,270.404C135.358,271.137 131.311,271.087 129.879,270.254C124.083,266.823 117.721,259.928 110.793,249.569C103.731,239.043 99.085,229.35 96.853,220.49C93.489,219.158 89.925,217.326 86.161,214.994C82.497,212.729 79.632,210.614 77.567,208.649C76.668,212.479 75.019,215.993 72.621,219.191C71.455,220.757 70.356,221.956 69.323,222.789C67.957,224.454 63.094,225.22 54.734,225.087L42.592,224.337C40.261,223.938 38.512,223.188 37.346,222.089C36.08,220.857 35.331,219.041 35.098,216.643C34.698,212.779 34.815,208.965 35.448,205.201L36.297,199.056L36.846,194.609C37.046,193.543 37.03,191.978 36.797,189.912L36.397,187.114C35.164,177.621 34.915,170.593 35.647,166.03C36.547,160.5 39.411,153.439 44.241,144.845C49.737,135.085 57.848,127.991 68.573,123.56C74.969,120.929 81.614,119.43 88.509,119.064C93.739,118.797 103.915,122.461 119.037,130.056C128.164,134.619 138.056,140.065 148.715,146.394C162.139,154.355 174.114,162.083 184.639,169.577C195.165,177.072 202.043,182.734 205.274,186.565" style="fill:rgb(13,19,26);fill-rule:nonzero;"/>
            </g>
            <g transform="matrix(3.32513,0,0,3.32513,-0.493783,-0.1137)">
                <path d="M69.923,125.059C76.118,122.328 82.33,120.796 88.559,120.463C96.187,120.063 117.871,131.621 153.612,155.138C171.499,166.929 188.603,178.787 204.925,190.712C203.459,195.575 201.594,199.938 199.329,203.802C196.597,208.432 193.067,212.796 188.736,216.893C183.873,221.456 177.045,225.27 168.251,228.335C161.923,230.566 157.709,231.682 155.61,231.682C155.144,231.682 154.794,230.883 154.561,229.284L154.062,224.937C153.962,223.571 153.545,223.122 152.812,223.588C152.113,224.054 151.896,225.137 152.163,226.836C152.996,231.299 153.962,237.861 155.061,246.521C156.36,256.947 156.81,262.893 156.41,264.358C156.41,264.592 156.027,264.925 155.261,265.358C152.896,266.623 148.582,267.673 142.32,268.505L131.278,268.955C130.245,268.655 128.23,267.007 125.232,264.009C121.568,260.411 118.071,256.281 114.74,251.618C105.047,238.127 99.501,224.354 98.102,210.298C97.802,207.233 97.403,205.168 96.903,204.102C96.37,203.103 96.004,203.469 95.804,205.201C95.504,207.466 95.72,211.63 96.453,217.692C89.392,214.994 82.014,209.798 74.319,202.104C62.928,190.745 56.549,177.988 55.183,163.831C55.017,162.066 54.767,160.833 54.434,160.134C54.101,159.468 53.818,159.501 53.584,160.234C52.985,162.199 53.251,166.396 54.384,172.825C55.217,177.355 56.582,181.535 58.481,185.366C62.045,192.427 67.757,199.722 75.618,207.25C75.285,209.215 74.586,211.33 73.52,213.595C72.354,216.093 70.955,218.308 69.323,220.24C68.69,221.073 67.258,221.806 65.026,222.439C60.596,223.738 54.367,223.954 46.34,223.088L44.241,222.689C41.909,222.289 40.161,221.49 38.995,220.29C37.929,219.191 37.296,217.659 37.096,215.694C36.896,213.262 37.063,210.381 37.596,207.05L38.745,199.406C39.078,196.508 39.161,194.159 38.995,192.361C37.996,182.035 37.613,175.256 37.846,172.025C38.479,163.298 41.393,154.571 46.589,145.844C52.152,136.418 59.93,129.49 69.923,125.059" style="fill:rgb(93,193,207);fill-rule:nonzero;"/>
            </g>
            <g transform="matrix(3.32513,0,0,3.32513,-0.493783,-0.1137)">
                <path d="M81.714,200.705C86.944,203.103 91.64,204.602 95.804,205.201C95.504,207.466 95.72,211.63 96.453,217.692C91.091,215.627 85.095,211.713 78.466,205.951C68.907,197.657 62.211,188.314 58.381,177.921C63.477,188.28 71.255,195.875 81.714,200.705" style="fill:rgb(80,168,180);fill-rule:nonzero;"/>
            </g>
            <g transform="matrix(3.32513,0,0,3.32513,-0.493783,-0.1137)">
                <path d="M75.618,207.25C75.285,209.215 74.586,211.33 73.52,213.595C72.354,216.093 70.955,218.308 69.323,220.24L67.125,221.689C64.893,222.689 61.845,223.288 57.981,223.488C62.944,221.523 65.143,216.327 64.576,207.899C64.077,200.904 61.912,193.11 58.081,184.516C61.612,191.911 67.458,199.489 75.618,207.25" style="fill:rgb(80,168,180);fill-rule:nonzero;"/>
            </g>
            <g transform="matrix(3.32513,0,0,3.32513,-0.493783,-0.1137)">
                <path d="M64.576,127.558C68.94,125.059 73.686,123.177 78.816,121.912C82.214,121.112 85.461,120.629 88.559,120.463C96.187,120.063 117.871,131.621 153.612,155.138C171.499,166.929 188.603,178.787 204.925,190.712C203.459,195.575 201.594,199.938 199.329,203.802C196.597,208.432 193.067,212.796 188.736,216.893C183.873,221.456 177.045,225.27 168.251,228.335C161.923,230.566 157.709,231.682 155.61,231.682C155.144,231.682 154.794,230.883 154.561,229.284L154.062,224.937C153.962,223.571 153.545,223.122 152.812,223.588C152.113,224.054 151.896,225.137 152.163,226.836C152.996,231.299 153.962,237.861 155.061,246.521C156.36,256.947 156.81,262.893 156.41,264.358C156.41,264.592 156.027,264.925 155.261,265.358L153.162,266.207C153.329,256.714 152.23,248.736 149.865,242.274C146.001,231.682 138.806,224.287 128.28,220.091C126.082,198.639 122.051,181.652 116.189,169.127C105.597,146.61 88.392,132.754 64.576,127.558" style="fill:rgb(80,168,180);fill-rule:nonzero;"/>
            </g>
            <g transform="matrix(3.32513,0,0,3.32513,-0.493783,-0.1137)">
                <path d="M47.189,217.942C47.822,218.009 48.688,218.692 49.787,219.991C50.953,221.356 51.503,222.572 51.436,223.638C51.369,224.77 50.886,226.003 49.987,227.335C49.088,228.668 48.338,229.334 47.739,229.334C47.139,229.334 46.156,228.468 44.791,226.736C43.425,225.037 42.742,223.871 42.742,223.238C42.709,222.639 43.308,221.606 44.541,220.14C45.773,218.642 46.656,217.909 47.189,217.942" style="fill:rgb(13,19,26);fill-rule:nonzero;"/>
            </g>
            <g transform="matrix(3.32513,0,0,3.32513,-0.493783,-0.1137)">
                <path d="M49.537,221.39C50.137,222.322 50.42,223.022 50.387,223.488C50.387,223.988 50.037,224.837 49.337,226.036C48.605,227.202 48.105,227.785 47.839,227.785C47.505,227.785 46.789,227.219 45.69,226.086C44.558,224.92 44.025,224.071 44.091,223.538C44.125,223.038 44.807,221.856 46.14,219.991C46.506,219.458 46.823,219.158 47.089,219.091C47.322,219.058 47.639,219.208 48.038,219.541L49.537,221.39" style="fill:white;fill-rule:nonzero;"/>
            </g>
            <g transform="matrix(3.32513,0,0,3.32513,-0.493783,-0.1137)">
                <path d="M55.233,224.737C55.167,224.204 55.699,223.055 56.832,221.29C57.998,219.458 58.881,218.508 59.48,218.442C60.113,218.408 61.029,219.175 62.228,220.74C63.427,222.339 63.944,223.488 63.777,224.188L62.878,227.135C62.311,228.434 61.695,229.267 61.029,229.634C60.363,230 59.23,229.4 57.631,227.835C56.133,226.369 55.333,225.337 55.233,224.737" style="fill:rgb(13,19,26);fill-rule:nonzero;"/>
            </g>
            <g transform="matrix(3.32513,0,0,3.32513,-0.493783,-0.1137)">
                <path d="M59.48,219.891C59.78,219.791 60.379,220.34 61.279,221.539C62.178,222.772 62.678,223.738 62.778,224.437L61.978,226.636C61.412,227.802 60.979,228.434 60.679,228.534C60.346,228.634 59.547,228.135 58.281,227.035C57.049,225.936 56.399,225.17 56.332,224.737C56.299,224.304 56.749,223.405 57.681,222.039C58.581,220.74 59.18,220.024 59.48,219.891" style="fill:white;fill-rule:nonzero;"/>
            </g>
            <g transform="matrix(3.32513,0,0,3.32513,-0.493783,-0.1137)">
                <path d="M65.975,223.238C65.975,222.472 66.292,221.406 66.925,220.041C67.724,218.375 68.623,217.309 69.623,216.843C70.689,216.31 71.788,217.376 72.92,220.041C74.02,222.639 74.369,224.687 73.97,226.186C73.77,227.019 72.371,226.886 69.773,225.786C67.208,224.654 65.942,223.804 65.975,223.238" style="fill:rgb(13,19,26);fill-rule:nonzero;"/>
            </g>
            <g transform="matrix(3.32513,0,0,3.32513,-0.493783,-0.1137)">
                <path d="M69.523,217.992C69.989,217.825 70.672,218.891 71.571,221.19C72.471,223.421 72.87,224.687 72.77,224.987C72.704,225.187 71.838,224.97 70.172,224.337C68.44,223.705 67.508,223.188 67.374,222.789C67.241,222.322 67.441,221.456 67.974,220.19C68.54,218.925 69.056,218.192 69.523,217.992" style="fill:white;fill-rule:nonzero;"/>
            </g>
            <g transform="matrix(3.32513,0,0,3.32513,-0.493783,-0.1137)">
                <path d="M130.429,269.355C130.562,268.389 131.078,267.373 131.978,266.307C132.877,265.274 133.643,264.725 134.276,264.658C135.075,264.625 135.958,265.108 136.924,266.107C137.79,267.04 138.34,267.956 138.573,268.855C138.706,269.388 138.356,270.704 137.524,272.802C136.657,274.934 136.008,275.95 135.575,275.85C135.009,275.717 134.009,274.751 132.577,272.952C131.078,271.12 130.362,269.921 130.429,269.355" style="fill:rgb(13,19,26);fill-rule:nonzero;"/>
            </g>
            <g transform="matrix(3.32513,0,0,3.32513,-0.493783,-0.1137)">
                <path d="M131.928,269.655C131.994,268.988 132.244,268.289 132.677,267.556C133.143,266.723 133.626,266.24 134.126,266.107C134.659,265.941 135.358,266.34 136.224,267.306C137.024,268.172 137.44,268.855 137.474,269.355L136.724,271.853C136.224,273.052 135.841,273.718 135.575,273.852C135.275,273.985 134.592,273.469 133.526,272.303C132.427,271.07 131.894,270.188 131.928,269.655" style="fill:white;fill-rule:nonzero;"/>
            </g>
            <g transform="matrix(3.32513,0,0,3.32513,-0.493783,-0.1137)">
                <path d="M145.318,263.209C146.017,263.143 147.117,263.609 148.615,264.608C150.248,265.674 151.047,266.64 151.014,267.506L150.364,271.653C149.931,273.485 149.498,274.451 149.065,274.551C148.299,274.751 146.917,274.151 144.918,272.752C142.886,271.353 141.804,270.221 141.671,269.355C141.604,268.722 142.054,267.556 143.02,265.857C144.019,264.125 144.785,263.243 145.318,263.209" style="fill:rgb(13,19,26);fill-rule:nonzero;"/>
            </g>
            <g transform="matrix(3.32513,0,0,3.32513,-0.493783,-0.1137)">
                <path d="M145.867,264.758C146.167,264.692 146.833,265.008 147.866,265.707C148.932,266.407 149.498,266.94 149.565,267.306L149.315,270.254C149.049,271.853 148.799,272.719 148.566,272.852C148.266,273.019 147.3,272.503 145.668,271.303C144.035,270.071 143.219,269.222 143.219,268.755C143.219,268.289 143.586,267.506 144.319,266.407C145.051,265.374 145.568,264.825 145.867,264.758" style="fill:white;fill-rule:nonzero;"/>
            </g>
            <g transform="matrix(3.32513,0,0,3.32513,-0.493783,-0.1137)">
                <path d="M155.411,259.662C156.61,259.196 158.075,260.511 159.807,263.609C161.539,266.707 162.039,268.789 161.306,269.854C161.106,270.154 159.891,270.004 157.659,269.405L153.312,267.956L152.113,267.106C151.946,266.807 151.946,266.257 152.113,265.458C152.28,264.558 152.729,263.442 153.462,262.11C154.228,260.678 154.878,259.862 155.411,259.662" style="fill:rgb(13,19,26);fill-rule:nonzero;"/>
            </g>
            <g transform="matrix(3.32513,0,0,3.32513,-0.493783,-0.1137)">
                <path d="M156.01,261.111C157.176,261.777 158.209,263.076 159.108,265.008C159.874,266.707 160.19,267.806 160.057,268.306C159.957,268.605 158.925,268.422 156.959,267.756C155.028,267.09 153.945,266.623 153.712,266.357C153.479,266.057 153.678,265.041 154.311,263.309C154.944,261.544 155.51,260.811 156.01,261.111" style="fill:white;fill-rule:nonzero;"/>
            </g>
            <g transform="matrix(3.32513,0,0,3.32513,-0.493783,-0.1137)">
                <path d="M163.405,244.623C163.471,244.323 164.054,243.907 165.154,243.374C166.353,242.774 167.235,242.608 167.802,242.874C168.468,243.174 169.134,244.023 169.8,245.422C170.5,246.821 170.699,247.737 170.4,248.17L168.051,250.419C166.719,251.451 165.753,251.917 165.154,251.818C164.554,251.684 164.071,250.602 163.705,248.57C163.338,246.705 163.238,245.389 163.405,244.623" style="fill:rgb(13,19,26);fill-rule:nonzero;"/>
            </g>
            <g transform="matrix(3.32513,0,0,3.32513,-0.493783,-0.1137)">
                <path d="M167.202,243.773C167.535,243.84 167.951,244.373 168.451,245.372C168.917,246.371 169.067,247.021 168.901,247.321L167.252,249.169C166.286,250.102 165.67,250.568 165.403,250.568C165.17,250.568 164.954,249.769 164.754,248.17L164.554,245.372C164.587,245.106 164.954,244.756 165.653,244.323C166.386,243.89 166.902,243.707 167.202,243.773" style="fill:white;fill-rule:nonzero;"/>
            </g>
            <g transform="matrix(3.32513,0,0,3.32513,-0.493783,-0.1137)">
                <path d="M176.046,246.821C177.145,245.855 178.044,245.322 178.744,245.222C179.476,245.089 180.409,245.689 181.542,247.021C182.608,248.287 183.14,249.186 183.14,249.719C183.14,250.185 182.491,251.251 181.192,252.917C179.793,254.715 178.71,255.581 177.944,255.515C177.145,255.448 176.245,254.416 175.246,252.417C174.28,250.485 173.964,249.253 174.297,248.72C174.563,248.287 175.146,247.654 176.046,246.821" style="fill:rgb(13,19,26);fill-rule:nonzero;"/>
            </g>
            <g transform="matrix(3.32513,0,0,3.32513,-0.493783,-0.1137)">
                <path d="M178.894,246.272C179.293,246.405 179.843,246.838 180.542,247.571C181.375,248.403 181.741,249.036 181.642,249.469L179.893,252.367C178.794,253.799 178.111,254.499 177.844,254.466C177.511,254.466 177.012,253.683 176.345,252.117C175.646,250.552 175.396,249.519 175.596,249.02C175.796,248.487 176.329,247.87 177.195,247.171C178.061,246.438 178.627,246.138 178.894,246.272" style="fill:white;fill-rule:nonzero;"/>
            </g>
            <g transform="matrix(3.32513,0,0,3.32513,-0.493783,-0.1137)">
                <path d="M188.936,247.021C190.169,245.555 191.218,244.856 192.084,244.923C193.183,245.022 193.833,246.255 194.033,248.62C194.266,251.018 193.766,252.9 192.534,254.266C191.768,255.098 190.685,254.699 189.286,253.067C187.987,251.534 187.337,250.302 187.337,249.369C187.337,249.103 187.87,248.32 188.936,247.021" style="fill:rgb(13,19,26);fill-rule:nonzero;"/>
            </g>
            <g transform="matrix(3.32513,0,0,3.32513,-0.493783,-0.1137)">
                <path d="M190.285,247.371C191.151,246.505 191.718,246.188 191.984,246.421C192.251,246.655 192.517,247.154 192.783,247.92L193.133,249.819L192.684,251.418C192.384,252.384 192.084,253 191.784,253.266C191.484,253.533 190.902,253.033 190.035,251.768C189.269,250.635 188.836,249.819 188.736,249.319C189.036,248.786 189.552,248.137 190.285,247.371" style="fill:white;fill-rule:nonzero;"/>
            </g>
            <g transform="matrix(3.32513,0,0,3.32513,-0.493783,-0.1137)">
                <path d="M83.013,57.608L94.555,64.154L122.085,94.232L82.513,100.877L66.825,94.881C56.399,90.818 51.253,88.636 51.386,88.336C51.519,88.103 53.551,86.954 57.482,84.888L67.274,79.492C64.71,80.358 61.162,81.824 56.632,83.889L50.636,86.537C50.27,86.504 48.371,85.088 44.941,82.29C41.476,79.459 39.861,77.944 40.094,77.744L45.54,74.796C49.271,72.731 51.919,70.965 53.484,69.5C50.587,70.299 47.022,71.615 42.792,73.447L37.146,75.845C36.747,75.812 35.148,74.596 32.35,72.198C29.552,69.766 28.253,68.434 28.453,68.201C28.619,68.001 30.051,67.285 32.749,66.052L39.994,62.655L30.851,64.353L24.555,65.353C23.989,65.319 23.106,64.92 21.907,64.154C20.741,63.354 20.142,62.804 20.109,62.505C20.075,62.272 21.208,61.589 23.506,60.456L29.102,57.708L22.457,57.658C19.659,57.525 18.393,57.209 18.66,56.709C18.926,56.243 20.242,55.16 22.607,53.461L26.254,50.963L28.852,51.513L27.054,50.913C26.088,50.547 25.738,50.297 26.004,50.164L30.051,48.815C32.416,48.082 33.715,47.732 33.949,47.765L41.393,51.962L38.945,49.114L37.096,46.716C36.863,46.183 38.845,45.767 43.042,45.467L49.837,45.717L53.684,52.312L52.985,48.565C52.752,47.199 52.702,46.45 52.835,46.316L55.333,46.516C56.799,46.816 57.681,47.066 57.981,47.266C58.214,47.466 59.18,49.048 60.879,52.012L59.48,48.415C58.947,47.083 58.747,46.316 58.881,46.117C59.014,45.883 61.462,46.766 66.225,48.765C70.922,50.763 73.37,51.929 73.57,52.262L75.469,57.259L74.969,54.96L74.719,53.461C74.819,53.328 77.584,54.71 83.013,57.608" style="fill:rgb(13,19,26);fill-rule:nonzero;"/>
            </g>
            <g transform="matrix(3.32513,0,0,3.32513,-0.493783,-0.1137)">
                <path d="M119.636,93.382L82.663,99.578L54.334,88.186C63.927,82.99 69.589,79.709 71.322,78.343L73.37,76.744L70.822,77.244C69.123,77.677 65.592,78.959 60.23,81.091C55.366,83.056 52.235,84.389 50.836,85.088L42.343,77.993L49.038,74.246C52.435,72.148 54.9,70.299 56.432,68.7L58.131,67.051C58.164,66.885 57.182,67.118 55.183,67.751L45.29,71.248L37.346,74.346L30.701,68.55L37.446,65.303L44.291,61.855L46.19,60.906C47.022,60.373 46.256,60.306 43.891,60.706L24.805,64.054L22.557,62.605L32.05,57.608L33.599,57.009C34.265,56.576 33.632,56.376 31.7,56.409L25.655,56.559L20.408,56.509C21.774,55.11 23.839,53.678 26.604,52.212L35.547,54.56L38.096,55.56C39.395,55.926 38.978,55.46 36.846,54.161C34.748,52.862 33.149,51.962 32.05,51.463L29.502,50.413L33.799,49.114L43.891,54.76C44.158,54.827 44.091,54.51 43.692,53.811C42.259,51.28 40.794,49.098 39.295,47.266L49.437,46.916C51.369,50.747 53.001,53.694 54.334,55.76C55.067,56.859 55.5,57.225 55.633,56.859L55.633,56.009C54.833,51.746 54.35,48.948 54.184,47.615L57.332,48.365L64.177,60.056C64.81,60.789 64.81,60.023 64.177,57.758L62.278,51.812L60.929,48.365L72.571,53.211L77.467,66.052L77.967,63.954L76.368,55.26C78.067,55.993 80.881,57.475 84.812,59.707C88.576,61.872 91.573,63.687 93.805,65.153L119.636,93.382" style="fill:rgb(0,166,60);fill-rule:nonzero;"/>
            </g>
            <g transform="matrix(3.32513,0,0,3.32513,-0.493783,-0.1137)">
                <path d="M90.108,91.783L85.761,82.29L104.897,90.984L150.164,107.872L149.565,108.621C146.001,113.018 142.253,117.348 138.323,121.612C130.562,130.039 124.933,134.969 121.435,136.401L121.185,136.501L120.936,136.401C117.405,135.102 109.66,134.503 97.702,134.602L80.765,134.602C80.465,134.136 79.915,132.804 79.116,130.605L76.768,123.71L77.667,134.702L77.567,136.151C77.467,136.451 77.217,136.651 76.818,136.751C63.66,138.483 56.982,139.116 56.782,138.65C56.649,138.35 56.599,136.684 56.632,133.653L56.782,126.708C56.016,128.573 55.516,131.305 55.283,134.902L54.983,140.148C54.783,140.482 51.319,141.597 44.591,143.496C37.862,145.361 34.432,146.194 34.298,145.994C34.198,145.794 34.132,144.412 34.098,141.847L34.198,136.751L31.7,143.846C30.867,146.277 30.335,147.56 30.101,147.693L21.957,149.392L14.213,150.441L16.911,145.195L21.058,137.35C19.959,138.083 16.395,141.214 10.366,146.744C4.803,151.84 1.905,154.355 1.672,154.288C1.339,154.188 1.306,152.456 1.572,149.092C1.805,145.794 2.038,143.979 2.272,143.646C2.605,143.18 6.169,140.681 12.964,136.151C11.765,136.518 9.2,137.484 5.269,139.049C2.005,140.348 0.323,140.931 0.223,140.798C0.09,140.565 1.206,138.316 3.571,134.053C5.902,129.756 7.285,127.458 7.718,127.158C8.017,126.925 9.633,126.325 12.564,125.359L20.608,122.661L13.963,123.261L10.266,123.361C10.133,123.028 11.282,121.129 13.713,117.665C16.278,113.967 18.127,111.919 19.259,111.519C20.658,110.953 26.371,110.287 36.397,109.521C35.564,109.188 33.416,108.571 29.951,107.672C27.154,106.972 25.755,106.506 25.755,106.273C25.755,105.973 27.853,104.191 32.05,100.927C36.214,97.696 38.529,96.047 38.995,95.98L42.892,96.48L49.637,97.779L44.891,95.881C43.192,95.214 42.459,94.848 42.692,94.781L49.487,91.184C53.818,88.852 56.149,87.636 56.482,87.537C56.815,87.403 58.431,87.853 61.329,88.886L69.673,91.833L65.126,89.535C63.427,88.702 62.794,88.169 63.227,87.936C63.76,87.636 66.575,87.02 71.671,86.088L79.965,84.789C80.598,84.888 83.979,87.22 90.108,91.783" style="fill:rgb(13,19,26);fill-rule:nonzero;"/>
            </g>
            <g transform="matrix(3.32513,0,0,3.32513,-0.493783,-0.1137)">
                <path d="M88.559,85.088L104.348,92.283L147.866,108.471C143.769,113.434 139.805,117.965 135.975,122.062C129.146,129.323 124.183,133.636 121.085,135.002C117.288,133.703 110.06,133.004 99.401,132.904C93.272,132.837 87.21,132.937 81.214,133.203L76.168,117.465C75.702,116.033 75.335,115.333 75.069,115.366C74.769,115.366 74.686,116.149 74.819,117.715C75.552,124.61 75.968,130.505 76.068,135.402L58.131,137.101C58.631,129.539 58.631,124.576 58.131,122.211C57.831,120.646 56.965,122.694 55.533,128.357C54.134,133.82 53.418,137.317 53.385,138.849L35.398,143.946L35.348,141.997C35.348,140.565 35.464,138.883 35.697,136.951C35.964,134.952 36.097,133.154 36.097,131.555C36.13,129.256 36.064,128.124 35.897,128.157C35.797,128.19 35.414,129.206 34.748,131.205L29.102,146.444L16.811,148.592L23.206,136.001L24.655,134.353C25.222,133.52 24.455,133.753 22.357,135.052C20.025,136.518 17.66,138.266 15.262,140.298L6.818,147.893L3.071,151.34C3.138,149.708 3.321,147.293 3.621,144.096L17.411,134.802L18.909,133.803C19.509,133.203 18.826,133.12 16.861,133.553C12.997,134.386 8.301,135.885 2.771,138.05C4.17,135.319 6.119,132.088 8.617,128.357C17.71,125.059 23.456,123.044 25.854,122.311C27.72,121.745 28.669,121.362 28.702,121.162L25.555,120.962L12.814,121.812C14.08,119.68 15.312,117.798 16.511,116.166C17.977,114.201 19.043,113.085 19.709,112.818L29.402,111.569L39.445,110.72L41.693,110.42C41.826,110.32 41.143,109.97 39.644,109.371C34.615,107.272 30.917,105.923 28.552,105.324L34.648,100.677L39.545,97.28L46.39,98.629L55.483,100.277L58.431,100.477C58.531,100.344 57.681,99.844 55.883,98.978L45.89,94.631L56.582,89.035L77.917,95.831C79.249,96.064 78.466,95.381 75.568,93.782L69.523,90.285L67.025,88.636L79.665,86.238L93.406,95.781L88.559,85.088" style="fill:rgb(0,166,60);fill-rule:nonzero;"/>
            </g>
            <g transform="matrix(3.32513,0,0,3.32513,-0.493783,-0.1137)">
                <path d="M93.406,95.781L88.559,85.088L104.348,92.283L147.866,108.471C143.769,113.434 139.805,117.965 135.975,122.062C129.146,129.323 124.183,133.636 121.085,135.002C118.687,134.169 114.907,133.587 109.744,133.253C110.11,126.725 109.277,121.429 107.245,117.365C104.714,112.202 100.184,108.621 93.655,106.623C93.655,103.791 92.773,100.86 91.007,97.829C89.708,95.664 87.626,92.983 84.762,89.785L93.406,95.781" style="fill:rgb(0,146,51);fill-rule:nonzero;"/>
            </g>
            <g transform="matrix(3.32513,0,0,3.32513,-0.493783,-0.1137)">
                <path d="M265.031,67.251C268.862,69.217 270.81,70.332 270.877,70.599C270.944,70.799 269.045,71.615 265.181,73.047L256.038,76.395L264.831,76.345L269.228,76.744C269.328,76.911 267.962,78.393 265.131,81.191L260.385,85.588L254.239,84.789L244.346,83.19L253.04,86.787C256.371,88.153 258.053,88.902 258.086,89.035L251.591,94.432C247.194,97.829 244.846,99.495 244.546,99.428L237.501,94.981C232.605,91.95 228.957,90.018 226.559,89.185C235.353,95.114 239.666,98.295 239.5,98.728C239.4,99.028 237.018,100.194 232.355,102.226C227.791,104.191 225.31,105.19 224.91,105.224L217.266,100.277C211.77,96.713 207.673,94.498 204.975,93.632C206.907,95.264 209.838,98.179 213.768,102.376C217.665,106.539 219.531,108.738 219.364,108.971C219.164,109.204 218.165,109.637 216.366,110.27L213.169,111.119L209.671,107.872C207.306,105.64 205.524,104.258 204.325,103.725L208.572,108.621C210.604,110.92 211.587,112.135 211.52,112.269C211.387,112.535 209.888,113.601 207.023,115.466C204.059,117.398 202.443,118.298 202.177,118.164L198.13,114.267C195.332,111.636 193.033,109.937 191.235,109.171L195.831,115.117C198.363,118.148 199.562,119.713 199.429,119.813L180.243,125.959L144.818,114.067L158.608,80.592L158.708,80.492C160.54,78.66 165.187,75.662 172.648,71.498C179.909,67.468 183.707,65.619 184.04,65.952C184.273,66.185 183.873,67.784 182.841,70.749L180.542,77.444L184.09,69.45C185.156,66.918 185.822,65.552 186.088,65.353C186.588,65.02 189.353,64.137 194.382,62.705C199.445,61.272 201.993,60.706 202.027,61.006L200.078,65.203C198.513,68.201 197.513,70.299 197.08,71.498L201.527,64.703C203.159,62.238 204.109,60.923 204.375,60.756C204.741,60.523 206.59,60.173 209.921,59.707L215.017,59.207L211.12,68.151L215.967,62.605L219.164,59.157L225.21,58.807C228.941,58.674 230.873,58.691 231.006,58.857C231.139,59.024 230.906,60.04 230.306,61.905L228.558,66.452C234.087,61.855 237.701,59.14 239.4,58.308L239.5,58.258L239.65,58.258C241.082,58.258 244.013,58.824 248.443,59.957C252.707,61.022 254.839,61.672 254.839,61.905L252.39,65.003L248.293,69.699L254.439,66.352C256.904,65.02 258.303,64.337 258.636,64.303C259.069,64.27 261.201,65.253 265.031,67.251" style="fill:rgb(13,19,26);fill-rule:nonzero;"/>
            </g>
            <g transform="matrix(3.32513,0,0,3.32513,-0.493783,-0.1137)">
                <path d="M249.243,66.902C247.311,69.3 245.995,70.782 245.295,71.348C244.363,72.114 243.896,72.581 243.896,72.747C243.93,72.98 244.663,72.831 246.095,72.298C248.093,71.498 252.274,69.3 258.636,65.702L267.829,70.449L260.534,73.347C256.504,74.912 253.873,75.845 252.64,76.145L249.193,76.894C248.626,77.061 249.093,77.194 250.592,77.294L266.43,77.794L259.985,83.889L251.841,82.89L239.749,81.241C237.351,80.941 236.568,81.041 237.401,81.541L239.4,82.39C249.959,86.72 255.338,89.035 255.538,89.335C255.671,89.535 253.923,90.967 250.292,93.632L244.596,97.479C232.105,90.684 224.96,87.203 223.161,87.037L220.813,86.887C220.713,86.987 221.379,87.42 222.812,88.186L231.006,93.582C234.903,96.314 236.868,97.846 236.902,98.179C236.935,98.412 235.203,99.311 231.705,100.877L225.01,103.775C214.818,96.38 207.456,92.383 202.926,91.783C199.995,91.417 198.812,91.417 199.379,91.783L202.277,93.083C203.176,93.649 205.291,95.564 208.622,98.828C212.353,102.492 215.184,105.573 217.116,108.072C216.017,108.371 214.801,108.854 213.469,109.521C212.769,108.755 211.154,107.472 208.622,105.673C206.057,103.841 204.175,102.626 202.976,102.026C201.877,101.493 201.344,101.31 201.377,101.476L202.327,102.875L205.674,107.222L209.621,112.019L202.427,116.566L197.28,112.119C194.416,109.854 192.167,108.338 190.535,107.572C189.403,107.039 188.82,106.873 188.786,107.072L189.536,108.721C189.936,109.554 191.018,111.186 192.783,113.618L197.23,119.214L180.243,124.66L146.467,113.318L159.657,81.291C162.022,78.993 169.467,74.679 181.991,68.35L179.993,75.645L178.094,82.14C177.561,83.639 177.345,84.522 177.445,84.789C177.578,85.088 178.177,84.306 179.243,82.44L183.84,73.397L187.138,66.102L199.479,62.555C198.08,65.086 196.381,69.416 194.382,75.545C193.683,77.577 193.366,78.66 193.433,78.793L195.482,76.045C197.214,73.28 200.428,68.567 205.125,61.905L213.568,60.706C211.936,63.004 210.337,66.402 208.772,70.899C208.272,72.364 208.089,73.114 208.222,73.147L209.821,71.548L219.764,60.406L229.807,60.106L228.208,63.854L225.959,68.65L225.06,70.899L226.909,69.45L233.104,64.403C236.302,61.805 238.534,60.173 239.799,59.507C241.565,59.573 245.845,60.589 252.64,62.555L249.243,66.902" style="fill:rgb(0,166,60);fill-rule:nonzero;"/>
            </g>
            <g transform="matrix(3.32513,0,0,3.32513,-0.493783,-0.1137)">
                <path d="M168.001,75.745C171.832,81.674 174.547,86.654 176.146,90.684C186.738,91.017 194.982,93.049 200.878,96.78C202.81,97.979 205.191,99.828 208.022,102.326L215.567,108.621L213.469,109.521C212.769,108.755 211.154,107.472 208.622,105.673C206.057,103.841 204.175,102.626 202.976,102.026C201.877,101.493 201.344,101.31 201.377,101.476L202.327,102.875L205.674,107.222L209.621,112.019L202.427,116.566L197.28,112.119C194.416,109.854 192.167,108.338 190.535,107.572C189.403,107.039 188.82,106.873 188.786,107.072L189.536,108.721C189.936,109.554 191.018,111.186 192.783,113.618L197.23,119.214L180.243,124.66L146.467,113.318L159.657,81.291C160.79,80.225 163.571,78.377 168.001,75.745" style="fill:rgb(0,146,51);fill-rule:nonzero;"/>
            </g>
            <g transform="matrix(3.32513,0,0,3.32513,-0.493783,-0.1137)">
                <path d="M114.29,114.567L104.298,114.367C98.635,114.234 96.02,113.984 96.453,113.618L106.046,106.273L90.657,101.427L88.559,100.577L90.857,100.177L114.29,101.427L135.625,114.217L121.535,118.414C112.209,121.112 107.695,122.228 107.995,121.762L111.143,118.214L114.29,114.567" style="fill:rgb(13,19,26);fill-rule:nonzero;"/>
            </g>
            <g transform="matrix(3.32513,0,0,3.32513,-0.493783,-0.1137)">
                <path d="M107.745,106.523L108.994,105.773L107.745,104.974C107.046,104.641 104.814,104.025 101.05,103.125L95.704,101.726L104.697,102.026L113.941,102.676L132.427,113.768C120.203,117.465 113.807,119.147 113.241,118.814C112.975,118.647 113.458,117.781 114.69,116.216C115.956,114.584 116.522,113.651 116.389,113.418L108.145,112.818L99.901,112.518C99.734,112.419 100.817,111.503 103.148,109.77L107.745,106.523" style="fill:rgb(0,166,60);fill-rule:nonzero;"/>
            </g>
            <g transform="matrix(3.32513,0,0,3.32513,-0.493783,-0.1137)">
                <path d="M144.718,4.197C146.584,3.464 147.65,3.448 147.916,4.147C148.016,4.48 147.866,5.213 147.466,6.345C146.767,8.61 146.4,10.476 146.367,11.941L149.465,8.944C150.731,7.744 151.697,7.028 152.363,6.795L154.311,6.695C154.711,6.962 154.711,7.528 154.311,8.394C153.445,10.259 152.962,12.757 152.862,15.888C152.729,20.485 153.878,24.249 156.31,27.18L156.81,27.83L156.11,28.23C151.78,30.628 147.35,32.743 142.82,34.575L137.274,36.573L136.724,36.723L125.882,16.888L128.98,10.742C131.245,6.412 132.827,3.597 133.726,2.298C134.825,0.766 135.708,0.017 136.374,0.05C137.041,0.117 137.29,0.899 137.124,2.398C136.857,5.529 136.807,7.644 136.974,8.744L140.272,6.545C141.87,5.513 143.353,4.73 144.718,4.197" style="fill:rgb(13,19,26);fill-rule:nonzero;"/>
            </g>
            <g transform="matrix(3.32513,0,0,3.32513,-0.493783,-0.1137)">
                <path d="M151.214,15.739C151.214,20.335 152.379,24.232 154.711,27.43C148.516,30.861 142.753,33.409 137.424,35.075L127.481,16.938C132.377,7.778 134.842,3.631 134.875,4.497L134.825,7.495C134.825,8.96 134.925,9.926 135.125,10.392L135.575,11.392L136.824,10.442C137.623,9.743 139.256,8.744 141.72,7.445C144.252,6.112 145.484,5.646 145.418,6.046L144.868,9.243L144.469,13.041C144.469,14.972 145.018,15.306 146.117,14.04C146.75,13.307 147.949,12.208 149.715,10.742C151.48,9.277 152.263,8.727 152.063,9.093C151.863,9.493 151.68,10.359 151.513,11.692C151.314,13.124 151.214,14.473 151.214,15.739" style="fill:rgb(201,71,114);fill-rule:nonzero;"/>
            </g>
            <g transform="matrix(3.32513,0,0,3.32513,-0.493783,-0.1137)">
                <path d="M127.381,16.138C128.147,15.872 128.697,15.988 129.03,16.488L131.728,20.185C133.393,23.15 134.226,26.248 134.226,29.479C134.226,32.21 133.66,34.858 132.527,37.423C131.728,39.255 130.795,42.552 129.729,47.316L126.681,62.055C124.183,74.912 122.218,83.939 120.786,89.135C118.421,97.729 116.056,102.642 113.691,103.875L111.043,103.925L108.644,102.825C102.815,100.194 98.702,97.596 96.303,95.031C92.34,90.668 89.975,84.256 89.209,75.795C88.442,67.235 93.805,55.127 105.297,39.471C109.627,33.542 114.024,28.246 118.487,23.583C122.751,19.153 125.715,16.671 127.381,16.138" style="fill:rgb(13,19,26);fill-rule:nonzero;"/>
            </g>
            <g transform="matrix(3.32513,0,0,3.32513,-0.493783,-0.1137)">
                <path d="M128.43,46.716L125.332,61.805C122.967,73.863 121.102,82.507 119.736,87.736C117.371,96.597 115.14,101.56 113.041,102.626C112.575,102.859 112.109,102.859 111.642,102.626L109.194,101.526C103.598,99.062 99.668,96.58 97.403,94.082C93.605,89.918 91.34,83.773 90.608,75.645L90.558,74.246C90.558,67.418 94.322,58.241 101.849,46.716C108.012,37.323 114.557,29.245 121.485,22.484C123.284,20.718 124.816,19.386 126.082,18.487L127.98,17.387L128.03,17.437L130.529,20.835C132.094,23.533 132.877,26.381 132.877,29.379C132.877,31.844 132.327,34.342 131.228,36.873C130.395,38.739 129.463,42.02 128.43,46.716" style="fill:rgb(13,19,26);fill-rule:nonzero;"/>
            </g>
            <g transform="matrix(3.32513,0,0,3.32513,-0.493783,-0.1137)">
                <path d="M169.35,40.82C184.173,61.839 183.074,81.441 166.053,99.628C161.556,104.458 155.91,107.888 149.115,109.92C143.519,111.619 137.807,112.235 131.978,111.769C126.781,111.336 121.435,110.037 115.939,107.872C111.309,106.073 108.411,104.524 107.245,103.225C98.185,99.428 90.924,93.982 85.461,86.887C80.798,80.825 78.117,74.613 77.417,68.251C76.285,58.224 80.648,47.965 90.508,37.473C95.97,31.577 102.066,26.547 108.794,22.384C112.092,20.352 114.64,18.12 116.439,15.689C118.004,13.524 118.787,11.508 118.787,9.643L118.687,6.895C118.554,6.262 118.254,5.629 117.788,4.996C117.255,4.264 117.155,3.781 117.488,3.547C117.854,3.314 118.604,3.464 119.736,3.997C121.402,4.763 122.751,5.896 123.783,7.395L125.882,11.192L126.681,8.144C127.148,6.812 127.681,6.462 128.28,7.095C129.346,8.227 130.512,12.558 131.778,20.085L132.527,16.738C132.694,16.272 133.343,16.921 134.476,18.686C136.508,21.917 137.873,24.332 138.573,25.931C139.472,23.266 140.904,20.369 142.87,17.238C143.669,15.972 144.319,15.306 144.818,15.239C145.285,15.206 145.484,15.755 145.418,16.888C145.351,18.587 145.684,20.652 146.417,23.083C146.95,21.651 147.849,20.052 149.115,18.287C150.314,16.621 151.497,15.272 152.663,14.24C153.828,13.207 154.928,12.641 155.96,12.541C156.993,12.408 157.293,12.807 156.86,13.74L155.66,16.638C155.294,17.87 155.061,19.353 154.961,21.085C156.093,19.519 157.059,18.37 157.859,17.637C158.425,17.104 159.374,16.388 160.707,15.489C163.738,13.424 164.804,13.474 163.904,15.639C161.839,20.369 161.023,23.966 161.456,26.431C162.022,29.395 164.654,34.192 169.35,40.82" style="fill:rgb(13,19,26);fill-rule:nonzero;"/>
            </g>
            <g transform="matrix(3.32513,0,0,3.32513,-0.493783,-0.1137)">
                <path d="M122.185,32.576C115.49,38.772 110.943,43.052 108.545,45.417C98.652,55.11 93.805,65.569 94.005,76.794C94.105,82.657 95.304,87.77 97.602,92.133C98.635,93.999 100.267,96.18 102.499,98.678C87.61,88.919 80.115,78.11 80.015,66.252L80.015,66.052C80.015,57.259 84.096,48.215 92.256,38.922C98.052,32.327 104.281,27.064 110.943,23.133C116.805,19.669 120.103,15.705 120.836,11.242L120.936,7.794C120.936,6.962 121.069,6.695 121.335,6.995C122.634,8.461 123.7,9.909 124.533,11.342C124.866,11.875 125.232,12.841 125.632,14.24C125.865,15.072 126.065,15.256 126.232,14.789L126.831,11.692C127.098,10.359 127.364,9.826 127.631,10.093C128.397,10.859 129.28,13.49 130.279,17.987L130.429,19.536C130.429,22.634 127.681,26.98 122.185,32.576" style="fill:rgb(232,83,130);fill-rule:nonzero;"/>
            </g>
            <g transform="matrix(3.32513,0,0,3.32513,-0.493783,-0.1137)">
                <path d="M122.834,39.022C114.973,47.349 110.093,52.862 108.195,55.56C102.599,63.487 99.801,71.448 99.801,79.442C99.801,84.272 101.6,90.851 105.197,99.178C102.865,97.479 100.534,93.865 98.202,88.336C96.87,85.172 96.27,81.741 96.403,78.043C96.636,72.381 97.869,66.968 100.101,61.805C102.166,57.009 104.98,52.645 108.545,48.715C110.843,46.217 115.14,42.02 121.435,36.124C126.831,30.594 130.112,25.781 131.278,21.684C131.578,22.983 131.445,24.599 130.878,26.531C129.746,30.361 127.064,34.525 122.834,39.022" style="fill:rgb(201,71,114);fill-rule:nonzero;"/>
            </g>
            <g transform="matrix(3.32513,0,0,3.32513,-0.493783,-0.1137)">
                <path d="M164.454,98.529C160.19,103.059 154.761,106.14 148.166,107.772C143.169,109.038 137.673,109.421 131.678,108.921C126.082,108.455 120.669,107.356 115.44,105.623C111.209,104.191 108.811,103.075 108.245,102.276L108.395,102.326L107.445,100.577C103.815,93.882 101.999,87.237 101.999,80.642C101.999,72.714 104.614,64.72 109.844,56.659C112.775,52.129 117.438,46.566 123.833,39.971C125.566,38.139 127.681,35.175 130.179,31.077C133.143,26.114 134.326,22.85 133.726,21.285C134.293,21.851 134.992,22.867 135.825,24.332C136.757,25.965 137.59,27.197 138.323,28.03C139.289,29.129 139.872,29.512 140.072,29.179L140.222,27.03C140.255,26.131 140.705,24.865 141.571,23.233C142.303,21.734 143.186,20.269 144.219,18.836C144.518,21.768 145.101,24.016 145.967,25.581L146.817,26.631L147.266,25.232C147.766,23.933 148.516,22.4 149.515,20.635C150.98,18.137 152.329,16.355 153.562,15.289L154.861,14.39C154.461,15.322 154.145,16.621 153.912,18.287C153.645,19.852 153.512,21.335 153.512,22.734C153.545,23.966 153.678,24.549 153.912,24.482L154.711,23.233C155.044,22.567 156.06,21.501 157.759,20.035C159.458,18.57 160.224,18.12 160.057,18.686C159.424,21.218 159.108,23.117 159.108,24.382C159.108,26.414 159.707,28.679 160.907,31.177C162.139,33.676 164.321,37.123 167.452,41.52C170.183,45.35 172.315,49.581 173.847,54.211C175.446,59.074 176.245,64.004 176.245,69C176.245,74.263 175.329,79.309 173.497,84.139C171.499,89.402 168.484,94.198 164.454,98.529" style="fill:rgb(232,83,130);fill-rule:nonzero;"/>
            </g>
            <g transform="matrix(3.32513,0,0,3.32513,-0.493783,-0.1137)">
                <path d="M102.499,98.678C96.57,94.748 91.823,90.684 88.259,86.487C89.958,87.087 92.539,87.753 96.004,88.486C96.903,90.951 98.085,93.199 99.551,95.231L102.499,98.678" style="fill:rgb(201,71,114);fill-rule:nonzero;"/>
            </g>
            <g transform="matrix(3.32513,0,0,3.32513,-0.493783,-0.1137)">
                <path d="M175.146,59.157C175.879,62.521 176.245,65.802 176.245,69C176.245,74.263 175.329,79.309 173.497,84.139C171.499,89.402 168.484,94.198 164.454,98.529C160.19,103.059 154.761,106.14 148.166,107.772C143.169,109.038 137.673,109.421 131.678,108.921C126.082,108.455 120.669,107.356 115.44,105.623C111.209,104.191 108.811,103.075 108.245,102.276L108.395,102.326L107.445,100.577C105.547,97.046 104.164,93.632 103.298,90.335C118.454,94.531 133.077,93.882 147.167,88.386C162.189,82.49 171.516,72.747 175.146,59.157" style="fill:rgb(201,71,114);fill-rule:nonzero;"/>
            </g>
            <g transform="matrix(3.32513,0,0,3.32513,-0.493783,-0.1137)">
                <path d="M213.668,129.206C214.434,129.739 214.401,133.42 213.568,140.248C212.669,147.543 211.187,155.154 209.122,163.082C209.854,166.746 209.788,171.825 208.922,178.321C208.022,184.916 206.623,190.462 204.725,194.959C202.926,199.256 200.228,203.103 196.631,206.5C193.666,209.332 188.936,212.862 182.441,217.093C175.812,221.39 166.636,223.705 154.911,224.038C141.754,224.404 130.046,221.823 119.786,216.293C106.296,209.032 98.169,199.505 95.404,187.714C93.839,185.582 93.272,183.367 93.705,181.069C94.038,179.403 94.871,177.821 96.203,176.322C95.704,173.824 96.12,170.043 97.453,164.98L99.551,158.135L98.302,155.887C97.469,154.155 97.136,152.723 97.303,151.59C96.57,149.758 95.82,145.928 95.054,140.098C94.222,133.803 94.122,129.956 94.755,128.557C96.22,127.458 100.4,126.958 107.295,127.058L119.786,127.957C120.719,127.158 123.267,125.892 127.431,124.16C132.361,122.095 136.358,120.879 139.422,120.513C146.717,119.647 153.329,119.996 159.258,121.562C164.787,123.061 169.9,125.676 174.597,129.406C182.491,126.408 191.151,125.359 200.578,126.259C207.539,126.925 211.903,127.907 213.668,129.206" style="fill:rgb(93,193,207);fill-rule:nonzero;"/>
            </g>
            <g transform="matrix(3.32513,0,0,3.32513,-0.493783,-0.1137)">
                <path d="M127.431,124.16C132.361,122.095 136.358,120.879 139.422,120.513C151.114,119.147 161.106,120.929 169.4,125.859C164.737,128.79 160.24,132.337 155.91,136.501C153.079,139.199 149.198,143.346 144.269,148.942C133.943,135.951 123.001,131.555 111.442,135.752C111.309,133.553 110.543,131.605 109.144,129.906C107.745,128.207 106.146,127.274 104.348,127.108L113.691,127.358L119.786,127.957C120.719,127.158 123.267,125.892 127.431,124.16" style="fill:rgb(80,168,180);fill-rule:nonzero;"/>
            </g>
            <g transform="matrix(3.32513,0,0,3.32513,-0.493783,-0.1137)">
                <path d="M98.002,190.462C98.002,190.196 99.268,190.196 101.799,190.462C104.398,190.728 106.146,191.178 107.046,191.811L106.446,195.109L105.447,198.206C105.014,199.372 104.547,199.988 104.048,200.055C103.215,200.155 102.033,199.039 100.5,196.707C98.968,194.276 98.135,192.194 98.002,190.462" style="fill:rgb(13,19,26);fill-rule:nonzero;"/>
            </g>
            <g transform="matrix(3.32513,0,0,3.32513,-0.493783,-0.1137)">
                <path d="M105.946,192.361L105.047,194.709C104.381,196.674 103.898,197.673 103.598,197.707C103.365,197.707 102.982,197.39 102.449,196.757L100.55,194.109C99.551,192.444 99.051,191.245 99.051,190.512L99.051,190.362L101.899,190.662C103.465,191.128 104.814,191.694 105.946,192.361" style="fill:white;fill-rule:nonzero;"/>
            </g>
            <g transform="matrix(3.32513,0,0,3.32513,-0.493783,-0.1137)">
                <path d="M213.668,129.206C214.434,129.739 214.401,133.42 213.568,140.248C212.669,147.543 211.187,155.154 209.122,163.082C209.854,166.746 209.788,171.825 208.922,178.321C208.022,184.916 206.623,190.462 204.725,194.959C202.826,199.455 199.479,204.069 194.682,208.799C189.952,213.462 185.872,216.227 182.441,217.093C186.405,215.028 189.902,211.846 192.933,207.55C196.164,203.02 198.463,197.823 199.828,191.961C203.093,178.004 200.644,163.581 192.484,148.692C190.252,144.562 189.136,142.18 189.136,141.547C189.136,141.181 190.069,140.348 191.934,139.049C196.797,135.618 201.777,132.937 206.873,131.005C210.937,129.44 213.202,128.84 213.668,129.206" style="fill:rgb(80,168,180);fill-rule:nonzero;"/>
            </g>
            <g transform="matrix(3.32513,0,0,3.32513,-0.493783,-0.1137)">
                <path d="M184.589,202.903L182.891,204.802C182.258,205.501 181.708,205.768 181.242,205.601C180.875,205.468 180.409,204.968 179.843,204.102L176.745,198.956L177.345,198.156L188.387,197.257L184.589,202.903" style="fill:rgb(13,19,26);fill-rule:nonzero;"/>
            </g>
            <g transform="matrix(3.32513,0,0,3.32513,-0.493783,-0.1137)">
                <path d="M178.294,199.006C181.858,198.073 184.523,197.69 186.288,197.857C183.524,202.054 181.975,204.085 181.642,203.952L180.143,201.904L178.294,199.006" style="fill:white;fill-rule:nonzero;"/>
            </g>
            <g transform="matrix(3.32513,0,0,3.32513,-0.493783,-0.1137)">
                <path d="M215.167,127.508C216.067,128.174 216.15,132.238 215.417,139.699C214.518,148.359 212.652,156.503 209.821,164.131C211.62,171.526 211.387,179.287 209.122,187.414C206.857,195.575 203.143,201.904 197.98,206.4C201.51,199.772 204.059,194.259 205.624,189.862C207.423,184.766 208.406,179.87 208.572,175.173C208.639,172.708 208.422,169.894 207.923,166.729C207.49,164.098 207.09,162.349 206.723,161.483C206.457,160.817 206.407,160.384 206.573,160.184C206.74,159.984 207.04,160.067 207.473,160.434L208.822,161.833C210.987,153.505 212.436,146.044 213.169,139.449C213.802,133.92 213.818,130.672 213.219,129.706C211.253,128.507 207.007,127.591 200.478,126.958C191.185,126.059 182.641,127.091 174.846,130.056L174.447,130.156L174.147,129.956C169.45,126.225 164.254,123.777 158.558,122.611C153.162,121.512 146.867,121.479 139.672,122.511C135.209,123.177 130.412,124.76 125.282,127.258C121.785,128.957 118.737,130.755 116.139,132.654C114.607,133.753 113.707,134.203 113.441,134.003C113.175,133.87 113.424,133.37 114.19,132.504L116.789,130.006L118.387,128.607L106.596,127.707C100.334,127.574 96.487,127.974 95.054,128.907C94.455,129.473 94.338,131.521 94.705,135.052C95.138,139.182 96.154,143.946 97.752,149.342L98.252,148.892C96.686,139.599 95.97,133.853 96.104,131.655C96.137,131.088 96.403,130.739 96.903,130.605C97.869,130.572 99.451,132.454 101.65,136.251C103.781,139.949 104.98,142.763 105.247,144.695L105.797,144.395L107.795,144.096C108.761,144.096 109.227,144.312 109.194,144.745C109.127,145.178 108.611,145.511 107.645,145.744C106.613,146.011 105.047,146.744 102.949,147.943C100.55,149.308 98.852,150.574 97.852,151.74C97.219,152.506 97.169,154.122 97.702,156.587L98.702,160.034C97.536,162.532 96.803,166.08 96.503,170.676C96.337,172.941 96.287,174.973 96.353,176.772C94.421,179.17 93.839,181.735 94.605,184.466C95.371,187.198 97.086,188.763 99.751,189.163C101.849,189.463 105.13,190.495 109.594,192.261C115.256,194.459 119.753,196.824 123.084,199.356L123.234,199.455L123.284,199.555C124.383,201.521 126.098,203.386 128.43,205.151C130.862,206.983 132.844,207.816 134.376,207.65C136.175,207.483 140.055,206.051 146.017,203.353L146.067,203.353C155.294,200.921 166.586,198.923 179.943,197.357L187.837,196.358C188.97,196.258 190.085,195.841 191.185,195.109L193.333,193.41C193.933,192.944 194.349,192.827 194.582,193.06C194.849,193.293 194.765,193.743 194.332,194.409L192.734,196.258C191.901,196.924 190.635,197.49 188.936,197.957L186.438,198.306L181.841,198.806C166.519,200.605 155.061,202.503 147.466,204.502C140.838,207.899 136.558,209.698 134.626,209.898C132.794,210.098 130.495,209.032 127.731,206.7C125.266,204.668 123.417,202.57 122.185,200.405C118.987,198.04 114.773,195.908 109.544,194.009C105.713,192.61 102.682,191.744 100.45,191.411C98.918,191.145 97.702,190.728 96.803,190.162C100.001,200.555 107.762,209.065 120.086,215.694C129.379,220.69 139.256,223.138 149.715,223.038C159.508,222.938 170.433,220.59 182.491,215.993C184.423,215.261 185.572,214.994 185.938,215.194C186.305,215.394 185.289,216.06 182.891,217.193C171.699,222.455 160.707,225.12 149.915,225.187C139.122,225.253 128.98,222.739 119.487,217.642C105.996,210.381 97.836,200.788 95.004,188.863C93.006,187.797 92.007,185.882 92.007,183.117C91.973,180.453 92.873,178.104 94.705,176.072C94.605,169.877 95.437,164.581 97.203,160.184C96.303,158.752 95.787,157.103 95.654,155.238C95.487,153.406 95.754,151.99 96.453,150.991C94.322,145.228 93.072,139.749 92.706,134.552C92.406,130.056 92.756,127.474 93.755,126.808C95.72,125.576 100.151,125.209 107.046,125.709L119.636,127.208C121.135,126.175 123.867,124.86 127.831,123.261C132.56,121.329 136.408,120.18 139.372,119.813C146.6,118.947 153.062,119.18 158.758,120.513C164.587,121.878 169.933,124.46 174.797,128.257C182.724,125.326 191.518,124.177 201.177,124.81C208.639,125.309 213.302,126.209 215.167,127.508" style="fill:rgb(13,19,26);fill-rule:nonzero;"/>
            </g>
            <g transform="matrix(3.32513,0,0,3.32513,-0.493783,-0.1137)">
                <path d="M97.153,132.104L97.153,131.854C97.952,132.654 99.151,134.669 100.75,137.9C102.449,141.298 103.482,143.929 103.848,145.794C102.416,146.227 100.9,147.11 99.301,148.442L98.002,140.398C97.436,136.335 97.153,133.57 97.153,132.104" style="fill:rgb(67,30,55);fill-rule:nonzero;"/>
            </g>
            <g transform="matrix(3.32513,0,0,3.32513,-0.493783,-0.1137)">
                <path d="M102.749,156.686C103.648,157.02 104.314,157.353 104.747,157.686C107.312,159.684 110.343,163.998 113.841,170.626C116.938,176.622 119.12,181.785 120.386,186.115L121.035,188.713C121.069,189.346 120.919,189.646 120.586,189.613L119.786,189.063L119.537,188.563C117.172,189.163 113.558,188.197 108.694,185.665C104.764,183.667 101.5,181.552 98.902,179.32C98.302,179.12 97.936,178.77 97.802,178.271C97.736,177.971 97.819,177.705 98.052,177.471L98.452,177.222C97.786,173.424 97.902,169.577 98.802,165.68C99.668,162.116 100.783,159.834 102.149,158.835L100.85,157.486C100.617,157.02 100.617,156.686 100.85,156.487L102.749,156.686" style="fill:rgb(13,19,26);fill-rule:nonzero;"/>
            </g>
            <g transform="matrix(3.32513,0,0,3.32513,-0.493783,-0.1137)">
                <path d="M99.551,173.824C99.551,170.56 100.067,167.345 101.1,164.181C101.999,161.45 102.799,159.901 103.498,159.534C105.097,160.034 107.645,163.581 111.143,170.177C114.573,176.605 117.022,182.318 118.487,187.314C116.356,187.481 113.208,186.482 109.044,184.316C105.513,182.451 102.482,180.486 99.951,178.421C99.684,176.755 99.551,175.223 99.551,173.824" style="fill:white;fill-rule:nonzero;"/>
            </g>
            <g transform="matrix(3.32513,0,0,3.32513,-0.493783,-0.1137)">
                <path d="M108.195,164.131L109.094,164.081C111.159,167.345 113.258,171.309 115.39,175.972C117.521,180.669 119.02,184.6 119.886,187.764L120.036,188.264L115.44,187.764C111.975,187.164 109.277,186.165 107.345,184.766L107.196,184.716L107.096,184.516C105.563,180.319 104.781,176.822 104.747,174.024C104.681,170.293 105.83,166.996 108.195,164.131" style="fill:rgb(13,19,26);fill-rule:nonzero;"/>
            </g>
            <g transform="matrix(3.32513,0,0,3.32513,-0.493783,-0.1137)">
                <path d="M106.446,175.123C106.446,171.626 107.196,168.411 108.694,165.48C110.626,168.611 112.558,172.292 114.49,176.522C116.422,180.786 117.821,184.433 118.687,187.464C116.322,187.731 112.775,186.565 108.045,183.967C106.979,181.102 106.446,178.154 106.446,175.123" style="fill:rgb(145,48,140);fill-rule:nonzero;"/>
            </g>
            <g transform="matrix(3.32513,0,0,3.32513,-0.493783,-0.1137)">
                <path d="M190.735,157.486C191.701,157.353 192.167,157.552 192.134,158.085C192.101,158.585 191.834,158.968 191.335,159.235L189.336,160.084C191.401,161.616 192.617,165.097 192.983,170.526C193.283,175.456 192.883,179.237 191.784,181.868C193.183,181.935 193.816,182.201 193.683,182.668L192.833,183.417L190.185,184.067L159.807,190.412L158.658,190.862C157.959,190.928 157.726,190.429 157.959,189.363C158.825,185.166 160.424,181.252 162.755,177.621C164.987,174.057 168.168,170.377 172.298,166.579C177.894,161.483 184.04,158.452 190.735,157.486" style="fill:rgb(13,19,26);fill-rule:nonzero;"/>
            </g>
            <g transform="matrix(3.32513,0,0,3.32513,-0.493783,-0.1137)">
                <path d="M173.048,169.427C175.779,166.929 178.527,164.831 181.292,163.132C183.823,161.6 185.955,160.65 187.687,160.284C188.686,161.483 189.469,163.698 190.035,166.929C190.568,169.827 190.835,172.875 190.835,176.072C190.835,178.937 190.618,181.019 190.185,182.318C186.655,182.818 177.894,184.716 163.904,188.014L160.307,188.863C160.64,186.165 161.923,183.117 164.154,179.72C166.386,176.289 169.35,172.858 173.048,169.427" style="fill:white;fill-rule:nonzero;"/>
            </g>
            <g transform="matrix(3.32513,0,0,3.32513,-0.493783,-0.1137)">
                <path d="M179.443,162.782L180.043,162.382L180.243,163.082C183.374,169.877 183.973,177.122 182.041,184.816L181.941,185.166L181.642,185.216L164.204,189.213L158.958,190.412L158.958,189.762C159.125,185.532 161.539,180.586 166.203,174.923C170.167,170.127 174.58,166.08 179.443,162.782" style="fill:rgb(13,19,26);fill-rule:nonzero;"/>
            </g>
            <g transform="matrix(3.32513,0,0,3.32513,-0.493783,-0.1137)">
                <path d="M179.443,164.081C180.942,169.744 181.692,174.54 181.692,178.471C181.692,180.569 181.475,182.501 181.042,184.266L163.954,188.214L160.107,189.113C160.474,185.149 162.805,180.586 167.102,175.423C170.766,171.026 174.88,167.245 179.443,164.081" style="fill:rgb(145,48,140);fill-rule:nonzero;"/>
            </g>
            <g transform="matrix(3.32513,0,0,3.32513,-0.493783,-0.1137)">
                <path d="M211.52,132.254L210.77,133.004L210.371,133.253C211.237,134.519 211.087,138.4 209.921,144.895C208.922,150.391 208.056,154.105 207.323,156.037L206.524,157.786L205.974,156.936C205.641,156.104 204.192,154.288 201.627,151.49C198.696,148.359 196.048,145.994 193.683,144.395L192.584,145.145C192.151,145.445 191.867,145.445 191.734,145.145C191.601,144.812 191.834,144.295 192.434,143.596C193.333,142.53 195.798,140.465 199.828,137.4C204.292,133.97 207.256,132.104 208.722,131.804L211.57,131.505C211.803,131.605 211.786,131.854 211.52,132.254" style="fill:rgb(13,19,26);fill-rule:nonzero;"/>
            </g>
            <g transform="matrix(3.32513,0,0,3.32513,-0.493783,-0.1137)">
                <path d="M208.122,145.095C207.523,149.192 206.89,152.589 206.224,155.287C205.125,153.455 203.676,151.507 201.877,149.442C199.712,146.91 197.563,144.895 195.432,143.396C197.563,141.298 199.762,139.399 202.027,137.7C204.858,135.535 207.173,134.186 208.972,133.653L209.122,135.052C209.122,137.284 208.789,140.631 208.122,145.095" style="fill:rgb(67,30,55);fill-rule:nonzero;"/>
            </g>
            <g transform="matrix(3.32513,0,0,3.32513,-0.493783,-0.1137)">
                <path d="M119.686,162.682C119.154,161.55 119.02,160.85 119.287,160.584C119.553,160.317 120.036,160.8 120.736,162.033C121.735,163.698 122.618,165.513 123.384,167.479C124.383,170.11 124.949,172.508 125.083,174.673C125.216,176.839 125.133,177.588 124.833,176.922L123.783,173.524L121.985,168.178L119.686,162.682" style="fill:rgb(13,19,26);fill-rule:nonzero;"/>
            </g>
            <g transform="matrix(3.32513,0,0,3.32513,-0.493783,-0.1137)">
                <path d="M164.504,159.035C165.203,158.535 165.636,158.402 165.803,158.635C165.97,158.902 165.786,159.268 165.253,159.734C163.821,161.033 162.472,163.098 161.206,165.93C159.841,168.994 158.775,172.525 158.009,176.522C157.776,177.854 157.509,178.621 157.209,178.82C156.909,179.054 156.793,178.371 156.86,176.772C157.259,168.178 159.807,162.266 164.504,159.035" style="fill:rgb(13,19,26);fill-rule:nonzero;"/>
            </g>
            <g transform="matrix(3.32513,0,0,3.32513,-0.493783,-0.1137)">
                <path d="M125.182,197.157L126.282,197.207C126.881,197.607 127.364,198.123 127.731,198.756L128.53,200.655C128.73,201.254 128.73,201.554 128.53,201.554L127.631,200.954L125.582,198.506C125.182,197.973 125.049,197.524 125.182,197.157" style="fill:rgb(13,19,26);fill-rule:nonzero;"/>
            </g>
            <g transform="matrix(3.32513,0,0,3.32513,-0.493783,-0.1137)">
                <path d="M137.474,202.154C137.773,201.121 138.956,200.138 141.021,199.206C141.621,198.906 142.02,198.956 142.22,199.356C142.453,199.755 142.303,200.138 141.77,200.505L138.373,202.703L137.174,203.203L137.474,202.154" style="fill:rgb(13,19,26);fill-rule:nonzero;"/>
            </g>
            <g transform="matrix(3.32513,0,0,3.32513,-0.493783,-0.1137)">
                <path d="M111.942,170.776L113.741,174.374L115.44,178.071C115.306,179.603 115.04,180.869 114.64,181.868C114.207,182.901 113.724,183.417 113.191,183.417C112.558,183.417 112.009,182.751 111.542,181.419C111.109,180.053 110.893,178.421 110.893,176.522C110.893,174.024 111.243,172.109 111.942,170.776" style="fill:rgb(13,19,26);fill-rule:nonzero;"/>
            </g>
            <g transform="matrix(3.32513,0,0,3.32513,-0.493783,-0.1137)">
                <path d="M170.15,180.669C169.883,182.401 169.384,183.85 168.651,185.016C167.951,186.148 167.235,186.648 166.503,186.515C165.803,186.415 165.287,185.715 164.954,184.416C164.654,183.084 164.637,181.552 164.904,179.82C165.17,178.088 165.67,176.655 166.403,175.523C167.102,174.357 167.818,173.841 168.551,173.974C169.284,174.107 169.8,174.823 170.1,176.122C170.4,177.421 170.416,178.937 170.15,180.669" style="fill:rgb(13,19,26);fill-rule:nonzero;"/>
            </g>
            <g transform="matrix(3.32513,0,0,3.32513,-0.493783,-0.1137)">
                <path d="M168.801,94.781C173.697,92.416 180.742,89.552 189.936,86.188C199.395,82.69 206.474,80.425 211.17,79.392L212.519,79.492C212.586,79.759 212.203,79.992 211.37,80.192C207.14,81.258 199.928,83.773 189.736,87.736C180.076,91.5 172.565,94.648 167.202,97.18L168.801,94.781" style="fill:rgb(13,19,26);fill-rule:nonzero;"/>
            </g>
            <g transform="matrix(3.32513,0,0,3.32513,-0.493783,-0.1137)">
                <path d="M231.755,77.794C224.227,79.559 213.452,82.94 199.429,87.936C183.507,93.599 171.232,98.678 162.605,103.175L163.155,101.427C171.516,97.03 183.29,92.15 198.479,86.787C212.936,81.724 223.961,78.46 231.555,76.994C232.388,76.861 232.838,76.911 232.904,77.144C232.971,77.411 232.588,77.627 231.755,77.794" style="fill:rgb(13,19,26);fill-rule:nonzero;"/>
            </g>
            <g transform="matrix(3.32513,0,0,3.32513,-0.493783,-0.1137)">
                <path d="M197.28,84.089C197.78,80.791 198.596,77.71 199.728,74.846C199.895,74.346 200.078,74.13 200.278,74.196C200.511,74.263 200.545,74.546 200.378,75.046C199.612,77.411 198.946,80.342 198.379,83.839L197.28,84.089" style="fill:rgb(13,19,26);fill-rule:nonzero;"/>
            </g>
            <g transform="matrix(3.32513,0,0,3.32513,-0.493783,-0.1137)">
                <path d="M183.24,89.435C183.94,85.838 184.673,82.757 185.439,80.192C185.605,79.692 185.789,79.492 185.988,79.592C186.188,79.692 186.222,79.992 186.088,80.492C185.489,82.723 184.972,85.488 184.539,88.786L183.24,89.435" style="fill:rgb(13,19,26);fill-rule:nonzero;"/>
            </g>
            <g transform="matrix(3.32513,0,0,3.32513,-0.493783,-0.1137)">
                <path d="M200.728,82.69C200.961,80.925 201.277,79.359 201.677,77.993C201.777,77.594 201.944,77.427 202.177,77.494C202.377,77.56 202.443,77.794 202.377,78.193L201.677,82.44L200.728,82.69" style="fill:rgb(13,19,26);fill-rule:nonzero;"/>
            </g>
            <g transform="matrix(3.32513,0,0,3.32513,-0.493783,-0.1137)">
                <path d="M209.671,83.939L213.269,87.087C213.568,87.353 213.635,87.57 213.469,87.736L212.769,87.587L208.422,84.189L209.671,83.939" style="fill:rgb(13,19,26);fill-rule:nonzero;"/>
            </g>
            <g transform="matrix(3.32513,0,0,3.32513,-0.493783,-0.1137)">
                <path d="M183.59,93.232L184.639,92.683C185.805,93.449 187.287,94.631 189.086,96.23L193.133,100.327C193.433,100.694 193.5,100.96 193.333,101.127C193.133,101.293 192.883,101.193 192.584,100.827L188.137,96.83L183.59,93.232" style="fill:rgb(13,19,26);fill-rule:nonzero;"/>
            </g>
            <g transform="matrix(3.32513,0,0,3.32513,-0.493783,-0.1137)">
                <path d="M191.335,90.185L192.484,89.685C195.182,91.717 197.563,93.982 199.629,96.48C199.962,96.846 200.028,97.096 199.828,97.23C199.629,97.363 199.362,97.246 199.029,96.88C196.631,94.415 194.066,92.183 191.335,90.185" style="fill:rgb(13,19,26);fill-rule:nonzero;"/>
            </g>
            <g transform="matrix(3.32513,0,0,3.32513,-0.493783,-0.1137)">
                <path d="M97.802,96.98L99.901,98.279C93.839,99.578 86.261,101.393 77.167,103.725C66.408,106.523 59.114,108.671 55.283,110.17L53.934,110.22C53.834,109.987 54.184,109.704 54.983,109.371C59.214,107.639 66.275,105.357 76.168,102.526C85.028,100.028 92.24,98.179 97.802,96.98" style="fill:rgb(13,19,26);fill-rule:nonzero;"/>
            </g>
            <g transform="matrix(3.32513,0,0,3.32513,-0.493783,-0.1137)">
                <path d="M37.246,119.963L35.947,120.063C35.847,119.83 36.18,119.547 36.946,119.214C43.475,116.316 52.552,113.168 64.177,109.77C75.702,106.373 86.011,103.825 95.104,102.126L97.902,103.075C89.009,104.807 78.183,107.455 65.426,111.02C52.902,114.517 43.508,117.498 37.246,119.963" style="fill:rgb(13,19,26);fill-rule:nonzero;"/>
            </g>
            <g transform="matrix(3.32513,0,0,3.32513,-0.493783,-0.1137)">
                <path d="M65.426,98.429C64.993,98.129 64.843,97.896 64.976,97.729L65.825,97.879C68.29,99.511 70.722,101.56 73.12,104.025L72.071,104.474C69.706,102.009 67.491,99.994 65.426,98.429" style="fill:rgb(13,19,26);fill-rule:nonzero;"/>
            </g>
            <g transform="matrix(3.32513,0,0,3.32513,-0.493783,-0.1137)">
                <path d="M76.818,102.726L75.868,103.075L72.87,100.028C72.471,99.661 72.337,99.395 72.471,99.228C72.604,99.062 72.887,99.145 73.32,99.478L76.818,102.726" style="fill:rgb(13,19,26);fill-rule:nonzero;"/>
            </g>
            <g transform="matrix(3.32513,0,0,3.32513,-0.493783,-0.1137)">
                <path d="M45.74,116.316L46.689,115.966C46.423,117.465 46.256,118.98 46.19,120.513C46.156,121.012 46.023,121.279 45.79,121.312C45.59,121.312 45.474,121.062 45.44,120.563C45.407,119.463 45.507,118.048 45.74,116.316" style="fill:rgb(13,19,26);fill-rule:nonzero;"/>
            </g>
            <g transform="matrix(3.32513,0,0,3.32513,-0.493783,-0.1137)">
                <path d="M68.124,109.421C68.024,111.153 67.974,113.118 67.974,115.316C68.007,117.981 68.107,119.88 68.274,121.012C68.34,121.479 68.257,121.728 68.024,121.762C67.791,121.828 67.624,121.629 67.524,121.162C67.258,119.73 67.058,117.815 66.925,115.416C66.825,112.951 66.858,111.036 67.025,109.671L68.124,109.421" style="fill:rgb(13,19,26);fill-rule:nonzero;"/>
            </g>
            <g transform="matrix(3.32513,0,0,3.32513,-0.493783,-0.1137)">
                <path d="M63.627,110.67C63.161,114.167 62.994,117.531 63.127,120.762C63.161,121.262 63.061,121.545 62.828,121.612C62.628,121.645 62.495,121.429 62.428,120.962C62.062,117.831 62.078,114.534 62.478,111.07L63.627,110.67" style="fill:rgb(13,19,26);fill-rule:nonzero;"/>
            </g>
            <g transform="matrix(3.32513,0,0,3.32513,-0.493783,-0.1137)">
                <path d="M138.523,134.503C140.521,132.571 146.467,132.72 156.36,134.952C166.319,137.184 171.399,139.665 171.599,142.397C171.765,144.828 168.501,149.125 161.806,155.287C155.077,161.483 150.381,164.398 147.716,164.031C145.151,163.665 142.537,159.068 139.872,150.241C137.24,141.448 136.791,136.201 138.523,134.503" style="fill:rgb(0,137,130);fill-rule:nonzero;"/>
            </g>
            <g transform="matrix(3.32513,0,0,3.32513,-0.493783,-0.1137)">
                <path d="M138.023,142.197C137.39,138.033 137.557,135.469 138.523,134.503C139.489,133.57 141.87,133.203 145.668,133.403C149.198,133.57 153.079,134.169 157.309,135.202C154.245,138.033 149.898,142.613 144.269,148.942C141.937,146.111 139.855,143.862 138.023,142.197" style="fill:rgb(0,115,109);fill-rule:nonzero;"/>
            </g>
            <g transform="matrix(3.32513,0,0,3.32513,-0.493783,-0.1137)">
                <path d="M137.474,162.832C138.24,164.198 138.14,166.862 137.174,170.826C136.241,174.657 135.325,176.605 134.426,176.672C133.76,176.739 132.577,175.223 130.878,172.125C129.146,168.928 128.447,166.762 128.78,165.63C129.113,164.497 130.579,163.615 133.177,162.982L137.474,162.832" style="fill:rgb(0,137,130);fill-rule:nonzero;"/>
            </g>
            <g transform="matrix(3.32513,0,0,3.32513,-0.493783,-0.1137)">
                <path d="M79.715,179.97L75.219,179.82C74.652,179.487 73.786,178.421 72.621,176.622C71.388,174.657 70.822,173.308 70.922,172.575C71.022,171.676 71.638,170.043 72.77,167.678C73.936,165.147 74.952,163.415 75.818,162.482C76.751,161.516 78.733,160.833 81.764,160.434C84.728,160.034 86.344,160.167 86.61,160.833C87.077,161.966 87.077,164.947 86.61,169.777C86.177,174.773 85.561,177.655 84.762,178.421C83.996,179.187 82.314,179.703 79.715,179.97" style="fill:rgb(0,137,130);fill-rule:nonzero;"/>
            </g>
            <g transform="matrix(3.32513,0,0,3.32513,-0.493783,-0.1137)">
                <path d="M71.371,155.537C71.272,156.237 70.505,157.036 69.073,157.936C67.707,158.768 66.758,159.151 66.225,159.085C65.659,158.985 64.86,157.986 63.827,156.087C62.761,154.088 62.495,152.856 63.028,152.39C63.66,151.823 65.226,151.99 67.724,152.889C70.289,153.822 71.505,154.705 71.371,155.537" style="fill:rgb(0,137,130);fill-rule:nonzero;"/>
            </g>
            <g transform="matrix(3.32513,0,0,3.32513,-0.493783,-0.1137)">
                <path d="M38.945,197.357L38.995,192.361L38.196,185.116C37.896,182.151 37.729,179.553 37.696,177.322C40.394,176.555 42.143,176.222 42.942,176.322C43.475,176.389 44.691,178.104 46.589,181.469C48.488,184.866 49.437,187.098 49.437,188.164C49.437,189.263 48.721,191.161 47.289,193.86C45.857,196.524 44.807,197.99 44.141,198.256C43.342,198.623 41.61,198.323 38.945,197.357" style="fill:rgb(0,137,130);fill-rule:nonzero;"/>
            </g>
            <g transform="matrix(3.32513,0,0,3.32513,-0.493783,-0.1137)">
                <path d="M129.579,227.385C130.245,227.252 132.61,228.851 136.674,232.182C140.738,235.479 142.886,237.561 143.119,238.427C143.353,239.293 143.003,241.009 142.07,243.573C141.171,246.138 140.455,247.554 139.922,247.82C139.422,248.02 138.173,248.02 136.175,247.82L132.527,247.121C132.028,246.854 131.161,245.855 129.929,244.123C128.697,242.358 127.964,241.075 127.731,240.276C127.464,239.41 127.581,237.095 128.08,233.331C128.547,229.467 129.046,227.485 129.579,227.385" style="fill:rgb(0,137,130);fill-rule:nonzero;"/>
            </g>
            <g transform="matrix(3.32513,0,0,3.32513,-0.493783,-0.1137)">
                <path d="M126.881,250.419C127.448,250.219 128.763,250.585 130.828,251.518C132.927,252.45 134.043,253.25 134.176,253.916C134.309,254.582 133.776,255.665 132.577,257.164C131.445,258.629 130.612,259.429 130.079,259.562L127.731,259.262C126.665,258.929 126.032,258.513 125.832,258.013C125.532,257.214 125.532,255.781 125.832,253.716C126.132,251.651 126.482,250.552 126.881,250.419" style="fill:rgb(0,137,130);fill-rule:nonzero;"/>
            </g>
            <g transform="matrix(3.32513,0,0,3.32513,-0.493783,-0.1137)">
                <path d="M191.834,234.43C191.534,235.03 190.069,235.496 187.437,235.829C184.806,236.162 183.407,236.012 183.24,235.379C183.074,234.713 183.657,233.381 184.989,231.382C186.322,229.384 187.304,228.401 187.937,228.434C188.57,228.501 189.453,229.384 190.585,231.083C191.684,232.815 192.101,233.93 191.834,234.43" style="fill:rgb(0,137,130);fill-rule:nonzero;"/>
            </g>
            <g transform="matrix(3.32513,0,0,3.32513,-0.493783,-0.1137)">
                <path d="M200.678,231.582L200.528,231.982L196.531,231.832C195.931,231.232 195.548,229.534 195.382,226.736C195.215,224.138 195.282,222.322 195.581,221.29L195.681,220.89C198.946,220.357 201.76,220.407 204.125,221.04C203.159,224.737 202.01,228.251 200.678,231.582" style="fill:rgb(0,137,130);fill-rule:nonzero;"/>
            </g>
            <g transform="matrix(3.32513,0,0,3.32513,-0.493783,-0.1137)">
                <path d="M205.824,214.045L204.125,221.04C201.76,220.407 198.946,220.357 195.681,220.89C196.081,219.757 196.714,218.458 197.58,216.993C198.546,215.361 199.279,214.445 199.778,214.245L202.377,213.945L205.824,214.045" style="fill:rgb(0,115,109);fill-rule:nonzero;"/>
            </g>
            <g transform="matrix(3.32513,0,0,3.32513,-0.493783,-0.1137)">
                <path d="M156.01,136.051C146.151,133.92 140.588,133.703 139.322,135.402C138.123,137.067 138.673,141.897 140.971,149.891C143.269,157.986 145.518,162.349 147.716,162.982C149.981,163.681 154.345,160.817 160.807,154.388C166.936,148.326 170.133,144.412 170.4,142.647C170.733,140.382 165.936,138.183 156.01,136.051M172.698,142.846C172.398,145.245 168.917,149.675 162.256,156.137C155.227,162.965 150.231,165.93 147.266,165.03C144.035,164.098 141.171,159.085 138.673,149.991C136.241,141.131 135.858,135.668 137.524,133.603C138.423,132.504 140.821,132.004 144.718,132.104C148.349,132.204 152.396,132.77 156.86,133.803C167.885,136.401 173.164,139.416 172.698,142.846" style="fill:rgb(13,19,26);fill-rule:nonzero;"/>
            </g>
            <g transform="matrix(3.32513,0,0,3.32513,-0.493783,-0.1137)">
                <path d="M129.529,165.68C129.363,166.479 129.996,168.345 131.428,171.276C132.86,174.207 133.826,175.606 134.326,175.473C134.959,175.306 135.642,173.408 136.374,169.777C137.107,166.146 137.19,164.048 136.624,163.482C136.158,163.015 134.875,163.115 132.777,163.781C130.712,164.481 129.629,165.114 129.529,165.68M137.923,161.983C139.056,163.015 139.172,165.747 138.273,170.177C137.374,174.573 136.208,177.022 134.776,177.521C133.51,177.988 131.878,176.356 129.879,172.625C127.947,169.028 127.114,166.579 127.381,165.28C127.614,164.181 129.196,163.148 132.127,162.182L137.923,161.983" style="fill:rgb(13,19,26);fill-rule:nonzero;"/>
            </g>
            <g transform="matrix(3.32513,0,0,3.32513,-0.493783,-0.1137)">
                <path d="M68.923,157.286C70.189,156.52 70.739,155.954 70.572,155.587C70.339,154.988 69.256,154.322 67.324,153.589C65.392,152.889 64.177,152.673 63.677,152.939C63.277,153.139 63.494,154.038 64.327,155.637C65.159,157.203 65.825,158.069 66.325,158.235C66.825,158.369 67.691,158.052 68.923,157.286M65.975,159.884C65.109,159.618 64.127,158.385 63.028,156.187C61.928,153.888 61.712,152.39 62.378,151.69C63.077,150.924 64.86,151.074 67.724,152.14C70.589,153.206 72.071,154.288 72.171,155.387C72.271,156.253 71.471,157.286 69.773,158.485C68.074,159.684 66.808,160.151 65.975,159.884" style="fill:rgb(13,19,26);fill-rule:nonzero;"/>
            </g>
            <g transform="matrix(3.32513,0,0,3.32513,-0.493783,-0.1137)">
                <path d="M72.171,166.929C73.836,163.565 74.902,161.733 75.369,161.433C76.468,160.734 78.433,160.134 81.264,159.634C84.295,159.068 86.194,159.101 86.96,159.734C87.826,160.434 88.026,163.531 87.56,169.028C87.127,174.357 86.51,177.605 85.711,178.77C85.078,179.703 83.363,180.353 80.565,180.719C78.167,181.019 76.401,181.035 75.269,180.769C74.503,180.602 73.437,179.47 72.071,177.371C70.705,175.306 69.956,173.741 69.823,172.675C69.756,172.175 70.539,170.26 72.171,166.929M73.72,167.629C72.387,170.493 71.738,172.125 71.771,172.525C71.804,173.324 72.321,174.557 73.32,176.222C74.353,177.921 75.185,178.887 75.818,179.12C76.484,179.353 77.933,179.337 80.165,179.07C82.53,178.77 83.912,178.321 84.312,177.721C84.945,176.789 85.461,173.924 85.861,169.127C86.227,164.331 86.177,161.749 85.711,161.383L81.714,161.233C79.449,161.566 77.617,162.149 76.218,162.982C75.885,163.215 75.052,164.764 73.72,167.629" style="fill:rgb(13,19,26);fill-rule:nonzero;"/>
            </g>
            <g transform="matrix(3.32513,0,0,3.32513,-0.493783,-0.1137)">
                <path d="M40.244,177.571C39.045,177.838 38.029,178.171 37.196,178.571L37.096,176.572C37.996,176.206 39.112,175.873 40.444,175.573L43.342,175.223C44.241,175.423 45.69,177.488 47.689,181.419C49.654,185.216 50.587,187.547 50.487,188.413C50.353,189.646 49.587,191.644 48.188,194.409C46.589,197.507 45.257,199.122 44.191,199.256L40.944,198.906C39.578,198.573 38.562,198.206 37.896,197.807L37.896,195.658C38.495,196.158 39.395,196.591 40.594,196.957L43.542,197.357C44.208,197.257 45.174,195.941 46.44,193.41C47.639,190.945 48.238,189.296 48.238,188.463C48.238,187.564 47.455,185.532 45.89,182.368C44.291,179.203 43.209,177.521 42.642,177.322L40.244,177.571" style="fill:rgb(13,19,26);fill-rule:nonzero;"/>
            </g>
            <g transform="matrix(3.32513,0,0,3.32513,-0.493783,-0.1137)">
                <path d="M129.879,228.434C129.379,228.634 129.013,230.233 128.78,233.231C128.58,235.663 128.513,237.994 128.58,240.226C128.613,240.626 129.23,241.658 130.429,243.324C131.628,244.923 132.411,245.839 132.777,246.072L136.224,246.871C138.19,247.138 139.339,247.154 139.672,246.921C140.172,246.555 140.788,245.256 141.521,243.024C142.253,240.692 142.453,239.193 142.12,238.527C141.587,237.461 139.555,235.463 136.025,232.531C132.461,229.567 130.412,228.201 129.879,228.434M127.181,232.831C127.581,229.001 128.197,226.919 129.03,226.586C130.062,226.186 132.644,227.652 136.774,230.983C140.705,234.18 143.02,236.462 143.719,237.828C144.219,238.86 144.019,240.726 143.119,243.424C142.32,245.855 141.554,247.437 140.821,248.17C140.322,248.703 138.889,248.87 136.524,248.67C134.392,248.503 132.877,248.22 131.978,247.82C131.511,247.654 130.545,246.488 129.08,244.323C127.614,242.158 126.865,240.792 126.831,240.226C126.731,238.261 126.848,235.796 127.181,232.831" style="fill:rgb(13,19,26);fill-rule:nonzero;"/>
            </g>
            <g transform="matrix(3.32513,0,0,3.32513,-0.493783,-0.1137)">
                <path d="M132.277,256.164C132.944,254.999 133.21,254.282 133.077,254.016C132.844,253.583 131.944,253 130.379,252.267C128.78,251.534 127.731,251.185 127.231,251.218C126.965,251.218 126.731,252.017 126.531,253.616C126.298,255.282 126.315,256.564 126.581,257.463C126.681,257.797 127.214,258.13 128.18,258.463L130.129,258.713C130.828,258.28 131.545,257.43 132.277,256.164M134.975,253.616C134.942,254.582 134.409,255.831 133.377,257.364C132.411,258.796 131.578,259.728 130.878,260.161L127.681,259.962C126.082,259.462 125.216,258.912 125.083,258.313C124.749,257.18 124.733,255.482 125.033,253.217C125.299,250.818 125.765,249.519 126.432,249.319C127.231,249.053 128.863,249.519 131.328,250.718C133.793,251.917 135.009,252.883 134.975,253.616" style="fill:rgb(13,19,26);fill-rule:nonzero;"/>
            </g>
            <g transform="matrix(3.32513,0,0,3.32513,-0.493783,-0.1137)">
                <path d="M187.937,229.234C187.604,229.234 186.838,230.117 185.639,231.882C184.44,233.681 183.94,234.713 184.14,234.98L187.587,234.88C189.686,234.513 190.802,234.13 190.935,233.731C191.068,233.431 190.685,232.615 189.786,231.282C188.886,229.95 188.27,229.267 187.937,229.234M188.087,227.585C188.886,227.718 189.952,228.784 191.285,230.783C192.584,232.781 193.1,234.08 192.833,234.68C192.467,235.513 190.785,236.162 187.787,236.629C184.756,237.095 182.924,236.978 182.291,236.279C181.758,235.679 182.374,234.047 184.14,231.382C185.905,228.718 187.221,227.452 188.087,227.585" style="fill:rgb(13,19,26);fill-rule:nonzero;"/>
            </g>
            <g transform="matrix(3.32513,0,0,3.32513,-0.493783,-0.1137)">
                <path d="M203.576,212.996L207.523,213.445L206.923,215.494L203.626,214.994C202.06,214.894 200.894,214.894 200.128,214.994C199.695,215.028 198.979,215.993 197.98,217.892C197.047,219.724 196.481,221.106 196.281,222.039C196.014,223.305 195.965,225.054 196.131,227.285C196.331,229.584 196.631,230.849 197.03,231.083L198.629,231.332L202.327,230.633L201.377,232.781C198.679,233.448 196.831,233.448 195.831,232.781C195.065,232.282 194.582,230.416 194.382,227.185C194.182,224.521 194.182,222.689 194.382,221.689C194.516,220.857 195.148,219.341 196.281,217.143C197.58,214.511 198.663,213.146 199.529,213.046C200.395,212.946 201.744,212.929 203.576,212.996" style="fill:rgb(13,19,26);fill-rule:nonzero;"/>
            </g>
            <g transform="matrix(3.32513,0,0,3.32513,-0.493783,-0.1137)">
                <path d="M188.736,108.721L189.886,110.57L191.235,112.868C191.801,113.934 191.984,114.534 191.784,114.667L190.235,114.717L188.137,114.467L190.185,115.217C190.818,115.45 191.235,115.699 191.434,115.966C191.801,116.432 191.984,117.981 191.984,120.613C192.017,123.277 191.701,124.443 191.035,124.11L184.789,121.762L178.394,119.563C181.958,121.962 184.873,124.11 187.138,126.009L188.686,127.358C189.153,127.857 189.269,128.307 189.036,128.707C184.34,137.334 181.758,141.664 181.292,141.697C181.025,141.697 180.009,140.681 178.244,138.65L174.147,133.753L177.195,144.395C177.528,145.894 177.328,147.193 176.595,148.293C176.162,148.959 174.314,150.657 171.049,153.389C167.785,156.12 166.086,157.403 165.953,157.236L165.503,152.34L165.104,145.495L163.155,149.442C162.389,151.007 161.839,151.823 161.506,151.89C161.073,151.99 158.708,150.991 154.411,148.892C150.114,146.794 147.999,145.528 148.066,145.095C148.133,144.728 149.265,143.013 151.463,139.949L155.361,134.602C154.794,135.202 153.529,136.751 151.563,139.249L148.865,142.397L144.518,139.899L140.421,137.101C140.421,136.801 141.587,135.385 143.919,132.854C146.384,130.156 148.566,127.974 150.464,126.308C149.098,126.941 146.983,128.607 144.119,131.305L139.872,135.052C139.472,135.085 137.54,133.636 134.076,130.705C130.645,127.807 128.913,126.142 128.88,125.709C128.846,125.309 129.996,123.744 132.327,121.012C134.559,118.348 136.691,116.016 138.723,114.017C137.357,114.783 134.526,117.248 130.229,121.412C126.232,125.309 124.1,127.258 123.833,127.258C123.367,127.258 122.434,126.042 121.035,123.61C119.67,121.212 119.02,119.747 119.087,119.214C119.154,118.681 120.003,117.365 121.635,115.266C123.734,112.535 126.098,110.203 128.73,108.272C136.857,102.243 145.451,101.277 154.511,105.374L155.411,105.024C167.568,99.594 178.627,100.794 188.587,108.621L188.736,108.721" style="fill:rgb(13,19,26);fill-rule:nonzero;"/>
            </g>
            <g transform="matrix(3.32513,0,0,3.32513,-0.493783,-0.1137)">
                <path d="M183.84,120.513L174.797,117.365C172.698,116.799 171.649,116.615 171.649,116.815C171.649,116.982 172.581,117.548 174.447,118.514C176.212,119.447 178.56,121.012 181.492,123.211L187.737,128.457L184.09,134.952C182.358,138.017 181.358,139.566 181.092,139.599C180.726,139.599 178.144,136.734 173.348,131.005L171.949,129.606L172.298,131.605L174.447,139.599C175.713,143.996 176.295,146.311 176.196,146.544L172.298,150.141L167.002,154.638L166.902,147.643C166.869,143.912 166.752,141.881 166.552,141.547C166.219,141.014 164.387,143.896 161.056,150.191C155.627,146.96 152.063,144.995 150.364,144.295L154.811,138.1L159.208,131.954L160.607,130.156C160.773,129.689 160.074,129.873 158.508,130.705C155.977,132.038 152.663,135.385 148.566,140.748L142.32,136.801L147.766,130.855C150.664,127.857 152.613,126.092 153.612,125.559L155.61,124.46L153.412,124.41C149.748,124.643 145.201,127.624 139.772,133.353L130.579,125.559C131.744,123.993 133.493,121.862 135.825,119.164C138.689,115.833 140.555,113.867 141.421,113.268L143.07,112.069L141.221,112.169C138.056,112.668 134.642,114.567 130.978,117.865C129.013,119.663 126.681,122.112 123.983,125.209L120.336,119.513C123.234,114.517 127.014,110.587 131.678,107.722C138.939,103.225 146.783,102.792 155.211,106.423L155.86,106.173C160.39,104.374 164.554,103.375 168.351,103.175C175.413,102.842 181.875,104.957 187.737,109.521L189.586,113.318L188.187,113.168L184.889,113.068L182.341,113.368C182.441,113.534 183.19,113.834 184.589,114.267C186.188,114.767 188.154,115.65 190.485,116.915L190.685,119.663C190.752,121.362 190.702,122.428 190.535,122.861L183.84,120.513" style="fill:rgb(0,166,60);fill-rule:nonzero;"/>
            </g>
            <g transform="matrix(3.32513,0,0,3.32513,-0.493783,-0.1137)">
                <path d="M79.016,69.05L79.116,70.299C72.088,67.401 66.458,65.369 62.228,64.203C61.395,63.97 61.029,63.72 61.129,63.454L62.478,63.354C67.008,64.62 72.521,66.518 79.016,69.05" style="fill:rgb(13,19,26);fill-rule:nonzero;"/>
            </g>
            <g transform="matrix(3.32513,0,0,3.32513,-0.493783,-0.1137)">
                <path d="M79.665,72.797L79.915,74.196C68.723,68.734 58.731,64.72 49.937,62.155C49.138,61.922 48.788,61.672 48.888,61.406L50.187,61.356C59.014,63.854 68.84,67.668 79.665,72.797" style="fill:rgb(13,19,26);fill-rule:nonzero;"/>
            </g>
            <g transform="matrix(3.32513,0,0,3.32513,-0.493783,-0.1137)">
                <path d="M73.42,67.401L72.321,67.101C71.988,63.637 71.488,60.689 70.822,58.258C70.689,57.758 70.722,57.475 70.922,57.408C71.122,57.342 71.305,57.558 71.471,58.058C72.404,60.956 73.054,64.07 73.42,67.401" style="fill:rgb(13,19,26);fill-rule:nonzero;"/>
            </g>
            <g transform="matrix(3.32513,0,0,3.32513,-0.493783,-0.1137)">
                <path d="M70.272,66.252L69.273,65.952C69.273,64.22 69.09,62.571 68.723,61.006C68.657,60.606 68.723,60.373 68.923,60.306L69.423,60.806C69.989,62.272 70.272,64.087 70.272,66.252" style="fill:rgb(13,19,26);fill-rule:nonzero;"/>
            </g>
            <g transform="matrix(3.32513,0,0,3.32513,-0.493783,-0.1137)">
                <path d="M69.923,69.05L70.972,69.5L66.975,72.997L62.528,75.995C62.095,76.195 61.828,76.195 61.728,75.995C61.595,75.795 61.745,75.579 62.178,75.345C63.71,74.446 66.292,72.348 69.923,69.05" style="fill:rgb(13,19,26);fill-rule:nonzero;"/>
            </g>
            <g transform="matrix(3.32513,0,0,3.32513,-0.493783,-0.1137)">
                <path d="M164.204,119.314C162.472,113.185 159.474,108.888 155.211,106.423L156.41,105.573C160.873,108.272 163.938,112.885 165.603,119.413C167.135,125.376 167.252,131.771 165.953,138.6C165.753,139.566 165.52,140.015 165.253,139.949C164.987,139.882 164.92,139.366 165.054,138.4C166.119,131.405 165.836,125.043 164.204,119.314" style="fill:rgb(13,19,26);fill-rule:nonzero;"/>
            </g>
            <g transform="matrix(3.32513,0,0,3.32513,-0.493783,-0.1137)">
                <path d="M167.752,130.505C168.618,118.747 165.353,110.104 157.959,104.574L159.358,104.125C166.986,109.787 170.067,118.631 168.601,130.655C168.468,131.655 168.285,132.138 168.051,132.104C167.785,132.038 167.685,131.505 167.752,130.505" style="fill:rgb(13,19,26);fill-rule:nonzero;"/>
            </g>
            <g transform="matrix(3.32513,0,0,3.32513,-0.493783,-0.1137)">
                <path d="M161.856,112.518L163.005,114.017C160.474,113.884 158.059,114.251 155.76,115.117C153.529,115.983 151.214,117.398 148.815,119.364C148.182,119.863 147.783,120.03 147.616,119.863C147.416,119.73 147.6,119.38 148.166,118.814C152.263,114.684 156.826,112.585 161.856,112.518" style="fill:rgb(13,19,26);fill-rule:nonzero;"/>
            </g>
        </g>
    </g>
</svg>
