<?xml version="1.0" encoding="UTF-8" standalone="no"?>
<!DOCTYPE svg PUBLIC "-//W3C//DTD SVG 1.1//EN" "http://www.w3.org/Graphics/SVG/1.1/DTD/svg11.dtd">
<svg width="100%" height="100%" viewBox="0 0 271 276" version="1.1" xmlns="http://www.w3.org/2000/svg" xmlns:xlink="http://www.w3.org/1999/xlink" xml:space="preserve" xmlns:serif="http://www.serif.com/" style="fill-rule:evenodd;clip-rule:evenodd;stroke-linejoin:round;stroke-miterlimit:2;">
    <g>
        <path d="M144.718,4.197C146.584,3.464 147.65,3.448 147.916,4.147C148.016,4.48 147.866,5.213 147.466,6.345C146.767,8.61 146.4,10.476 146.367,11.941L149.465,8.944C150.731,7.744 151.697,7.028 152.363,6.795L154.311,6.695C154.711,6.962 154.711,7.528 154.311,8.394C153.445,10.259 152.962,12.757 152.862,15.888C152.729,20.485 153.878,24.249 156.31,27.18L156.81,27.83L156.11,28.23C151.78,30.628 147.35,32.743 142.82,34.575L137.274,36.573L136.724,36.723L125.882,16.888L128.98,10.742C131.245,6.412 132.827,3.597 133.726,2.298C134.825,0.766 135.708,0.017 136.374,0.05C137.041,0.117 137.29,0.899 137.124,2.398C136.857,5.529 136.807,7.644 136.974,8.744L140.272,6.545C141.87,5.513 143.353,4.73 144.718,4.197" style="fill:rgb(13,19,26);fill-rule:nonzero;"/>
        <path d="M151.214,15.739C151.214,20.335 152.379,24.232 154.711,27.43C148.516,30.861 142.753,33.409 137.424,35.075L127.481,16.938C132.377,7.778 134.842,3.631 134.875,4.497L134.825,7.495C134.825,8.96 134.925,9.926 135.125,10.392L135.575,11.392L136.824,10.442C137.623,9.743 139.256,8.744 141.72,7.445C144.252,6.112 145.484,5.646 145.418,6.046L144.868,9.243L144.469,13.041C144.469,14.972 145.018,15.306 146.117,14.04C146.75,13.307 147.949,12.208 149.715,10.742C151.48,9.277 152.263,8.727 152.063,9.093C151.863,9.493 151.68,10.359 151.513,11.692C151.314,13.124 151.214,14.473 151.214,15.739" style="fill:rgb(201,71,114);fill-rule:nonzero;"/>
        <path d="M127.381,16.138C128.147,15.872 128.697,15.988 129.03,16.488L131.728,20.185C133.393,23.15 134.226,26.248 134.226,29.479C134.226,32.21 133.66,34.858 132.527,37.423C131.728,39.255 130.795,42.552 129.729,47.316L126.681,62.055C124.183,74.912 122.218,83.939 120.786,89.135C118.421,97.729 116.056,102.642 113.691,103.875L111.043,103.925L108.644,102.825C102.815,100.194 98.702,97.596 96.303,95.031C92.34,90.668 89.975,84.256 89.209,75.795C88.442,67.235 93.805,55.127 105.297,39.471C109.627,33.542 114.024,28.246 118.487,23.583C122.751,19.153 125.715,16.671 127.381,16.138" style="fill:rgb(13,19,26);fill-rule:nonzero;"/>
        <path d="M128.43,46.716L125.332,61.805C122.967,73.863 121.102,82.507 119.736,87.736C117.371,96.597 115.14,101.56 113.041,102.626C112.575,102.859 112.109,102.859 111.642,102.626L109.194,101.526C103.598,99.062 99.668,96.58 97.403,94.082C93.605,89.918 91.34,83.773 90.608,75.645L90.558,74.246C90.558,67.418 94.322,58.241 101.849,46.716C108.012,37.323 114.557,29.245 121.485,22.484C123.284,20.718 124.816,19.386 126.082,18.487L127.98,17.387L128.03,17.437L130.529,20.835C132.094,23.533 132.877,26.381 132.877,29.379C132.877,31.844 132.327,34.342 131.228,36.873C130.395,38.739 129.463,42.02 128.43,46.716" style="fill:rgb(13,19,26);fill-rule:nonzero;"/>
        <path d="M169.35,40.82C184.173,61.839 183.074,81.441 166.053,99.628C161.556,104.458 155.91,107.888 149.115,109.92C143.519,111.619 137.807,112.235 131.978,111.769C126.781,111.336 121.435,110.037 115.939,107.872C111.309,106.073 108.411,104.524 107.245,103.225C98.185,99.428 90.924,93.982 85.461,86.887C80.798,80.825 78.117,74.613 77.417,68.251C76.285,58.224 80.648,47.965 90.508,37.473C95.97,31.577 102.066,26.547 108.794,22.384C112.092,20.352 114.64,18.12 116.439,15.689C118.004,13.524 118.787,11.508 118.787,9.643L118.687,6.895C118.554,6.262 118.254,5.629 117.788,4.996C117.255,4.264 117.155,3.781 117.488,3.547C117.854,3.314 118.604,3.464 119.736,3.997C121.402,4.763 122.751,5.896 123.783,7.395L125.882,11.192L126.681,8.144C127.148,6.812 127.681,6.462 128.28,7.095C129.346,8.227 130.512,12.558 131.778,20.085L132.527,16.738C132.694,16.272 133.343,16.921 134.476,18.686C136.508,21.917 137.873,24.332 138.573,25.931C139.472,23.266 140.904,20.369 142.87,17.238C143.669,15.972 144.319,15.306 144.818,15.239C145.285,15.206 145.484,15.755 145.418,16.888C145.351,18.587 145.684,20.652 146.417,23.083C146.95,21.651 147.849,20.052 149.115,18.287C150.314,16.621 151.497,15.272 152.663,14.24C153.828,13.207 154.928,12.641 155.96,12.541C156.993,12.408 157.293,12.807 156.86,13.74L155.66,16.638C155.294,17.87 155.061,19.353 154.961,21.085C156.093,19.519 157.059,18.37 157.859,17.637C158.425,17.104 159.374,16.388 160.707,15.489C163.738,13.424 164.804,13.474 163.904,15.639C161.839,20.369 161.023,23.966 161.456,26.431C162.022,29.395 164.654,34.192 169.35,40.82" style="fill:rgb(13,19,26);fill-rule:nonzero;"/>
        <path d="M122.185,32.576C115.49,38.772 110.943,43.052 108.545,45.417C98.652,55.11 93.805,65.569 94.005,76.794C94.105,82.657 95.304,87.77 97.602,92.133C98.635,93.999 100.267,96.18 102.499,98.678C87.61,88.919 80.115,78.11 80.015,66.252L80.015,66.052C80.015,57.259 84.096,48.215 92.256,38.922C98.052,32.327 104.281,27.064 110.943,23.133C116.805,19.669 120.103,15.705 120.836,11.242L120.936,7.794C120.936,6.962 121.069,6.695 121.335,6.995C122.634,8.461 123.7,9.909 124.533,11.342C124.866,11.875 125.232,12.841 125.632,14.24C125.865,15.072 126.065,15.256 126.232,14.789L126.831,11.692C127.098,10.359 127.364,9.826 127.631,10.093C128.397,10.859 129.28,13.49 130.279,17.987L130.429,19.536C130.429,22.634 127.681,26.98 122.185,32.576" style="fill:rgb(232,83,130);fill-rule:nonzero;"/>
        <path d="M122.834,39.022C114.973,47.349 110.093,52.862 108.195,55.56C102.599,63.487 99.801,71.448 99.801,79.442C99.801,84.272 101.6,90.851 105.197,99.178C102.865,97.479 100.534,93.865 98.202,88.336C96.87,85.172 96.27,81.741 96.403,78.043C96.636,72.381 97.869,66.968 100.101,61.805C102.166,57.009 104.98,52.645 108.545,48.715C110.843,46.217 115.14,42.02 121.435,36.124C126.831,30.594 130.112,25.781 131.278,21.684C131.578,22.983 131.445,24.599 130.878,26.531C129.746,30.361 127.064,34.525 122.834,39.022" style="fill:rgb(201,71,114);fill-rule:nonzero;"/>
        <path d="M164.454,98.529C160.19,103.059 154.761,106.14 148.166,107.772C143.169,109.038 137.673,109.421 131.678,108.921C126.082,108.455 120.669,107.356 115.44,105.623C111.209,104.191 108.811,103.075 108.245,102.276L108.395,102.326L107.445,100.577C103.815,93.882 101.999,87.237 101.999,80.642C101.999,72.714 104.614,64.72 109.844,56.659C112.775,52.129 117.438,46.566 123.833,39.971C125.566,38.139 127.681,35.175 130.179,31.077C133.143,26.114 134.326,22.85 133.726,21.285C134.293,21.851 134.992,22.867 135.825,24.332C136.757,25.965 137.59,27.197 138.323,28.03C139.289,29.129 139.872,29.512 140.072,29.179L140.222,27.03C140.255,26.131 140.705,24.865 141.571,23.233C142.303,21.734 143.186,20.269 144.219,18.836C144.518,21.768 145.101,24.016 145.967,25.581L146.817,26.631L147.266,25.232C147.766,23.933 148.516,22.4 149.515,20.635C150.98,18.137 152.329,16.355 153.562,15.289L154.861,14.39C154.461,15.322 154.145,16.621 153.912,18.287C153.645,19.852 153.512,21.335 153.512,22.734C153.545,23.966 153.678,24.549 153.912,24.482L154.711,23.233C155.044,22.567 156.06,21.501 157.759,20.035C159.458,18.57 160.224,18.12 160.057,18.686C159.424,21.218 159.108,23.117 159.108,24.382C159.108,26.414 159.707,28.679 160.907,31.177C162.139,33.676 164.321,37.123 167.452,41.52C170.183,45.35 172.315,49.581 173.847,54.211C175.446,59.074 176.245,64.004 176.245,69C176.245,74.263 175.329,79.309 173.497,84.139C171.499,89.402 168.484,94.198 164.454,98.529" style="fill:rgb(232,83,130);fill-rule:nonzero;"/>
    </g>
</svg>
