<?xml version="1.0" encoding="UTF-8" standalone="no"?>
<!DOCTYPE svg PUBLIC "-//W3C//DTD SVG 1.1//EN" "http://www.w3.org/Graphics/SVG/1.1/DTD/svg11.dtd">
<svg width="100%" height="100%" viewBox="0 0 720 720" version="1.1" xmlns="http://www.w3.org/2000/svg" xmlns:xlink="http://www.w3.org/1999/xlink" xml:space="preserve" xmlns:serif="http://www.serif.com/" style="fill-rule:evenodd;clip-rule:evenodd;">
    <g>
        <g>
            <path d="M59.762,297C59.762,360.428 111.165,411.734 174.593,411.838C177.305,411.838 179.905,411.734 182.61,411.526L184.553,411.377L185.645,409.762C207.381,377.617 220.138,338.839 220.138,297C220.138,255.158 207.48,216.378 185.64,184.231L184.552,182.629L182.622,182.475C180.017,182.267 177.309,182.162 174.6,182.162C111.17,182.162 59.762,233.57 59.762,297ZM180.05,190.393C178.259,190.289 176.429,190.238 174.6,190.238C115.63,190.238 67.838,238.03 67.838,297C67.838,355.972 115.635,403.666 174.6,403.762C176.442,403.762 178.232,403.71 180.047,403.605C200.246,373.072 212.062,336.454 212.062,297C212.062,257.545 200.342,220.926 180.05,190.393Z" style="fill:rgb(0,105,145);"/>
        </g>
        <path d="M614.953,400.492L618.56,399.202C632.797,394.11 645.58,386.109 656.283,375.925L659.231,373.121L656.404,370.194C642.808,356.123 634.538,337.012 634.538,316C634.538,287.378 649.944,262.37 672.861,248.773L676.36,246.696L674.256,243.212C661.577,222.219 642.036,206.01 618.653,197.695L615.056,196.416L613.577,199.936C587.159,262.833 587.158,334.062 613.475,396.959L614.953,400.492ZM619.545,206.666C595.936,265.475 595.934,331.429 619.447,390.227C629.916,386.012 639.465,380.067 647.786,372.753C634.459,357.565 626.462,337.702 626.462,316C626.462,285.909 641.893,259.438 665.223,244.031C654.195,227.31 638.326,214.187 619.545,206.666Z" style="fill:rgb(0,105,145);"/>
    </g>
    <g>
        <path d="M387.254,364.696C382.132,373.086 373.129,378.924 362.532,379.366C352.005,379.808 342.452,374.944 336.526,367.071L330.074,371.929C337.548,381.856 349.595,387.992 362.87,387.434C376.271,386.876 387.668,379.514 394.146,368.904L387.254,364.696Z" style="fill:rgb(26,60,0);"/>
        <path d="M457.84,316.019C460.421,314.796 463.327,313.995 466.263,313.43C474.153,311.965 481.931,313.308 488.606,316.588C495.15,319.86 500.664,324.953 504.161,331.497L497.039,335.303C494.336,330.247 490.05,326.34 485.019,323.824C479.869,321.292 473.847,320.235 467.763,321.365C465.504,321.8 463.24,322.387 461.242,323.343L461.113,323.402C457.729,324.877 454.782,327.052 452.352,329.655L446.448,324.145C449.607,320.761 453.443,317.943 457.84,316.019Z" style="fill:rgb(26,60,0);"/>
        <path d="M438.803,352.944C433.65,354.543 428.23,354.713 423.165,353.735C416.881,352.496 410.935,349.303 406.41,344.6L400.59,350.2C406.265,356.097 413.719,360.104 421.619,361.662C427.97,362.887 434.75,362.657 441.197,360.656L438.803,352.944Z" style="fill:rgb(26,60,0);"/>
        <path d="M459.042,338.991C457.092,342.624 454.436,345.905 451.157,348.564L456.243,354.836C460.364,351.495 463.708,347.376 466.158,342.809L459.042,338.991Z" style="fill:rgb(26,60,0);"/>
        <path d="M464.498,327.684C466.665,326.151 469.281,325.516 471.668,325.666C475.271,325.816 478.734,327.6 481.024,330.806L481.06,330.86C481.968,332.223 482.557,333.594 482.859,335.108L474.941,336.692C474.848,336.23 474.652,335.818 474.381,335.403C473.634,334.382 472.511,333.784 471.29,333.733L471.248,333.73C470.535,333.685 469.771,333.84 469.094,334.324L469.04,334.36C468.363,334.811 467.897,335.432 467.657,336.107C467.551,336.505 467.438,336.9 467.438,337.3L459.362,337.3C459.362,336.176 459.602,335.045 459.883,333.921L459.969,333.623C460.729,331.345 462.233,329.213 464.498,327.684ZM464.498,327.684L464.453,327.714L464.56,327.64L464.498,327.684Z" style="fill:rgb(26,60,0);"/>
        <path d="M475.629,340.232C476.179,343.216 475.784,346.2 474.606,348.87C474.116,350.012 473.479,351.032 472.77,351.977C470.602,354.764 467.446,356.821 463.656,357.531C455.607,358.938 447.893,353.603 446.478,345.505C445.61,340.693 447.183,335.983 450.324,332.685L444.476,327.115C439.617,332.217 437.19,339.507 438.526,346.917C440.707,359.397 452.593,367.662 465.095,365.478C470.954,364.379 475.798,361.236 479.187,356.879C480.321,355.368 481.284,353.788 482.011,352.091C483.816,348 484.421,343.384 483.571,338.768L475.629,340.232Z" style="fill:rgb(26,60,0);"/>
        <path d="M518.54,343.302C521.87,342.414 525.567,343.098 528.526,345.392C530.419,346.83 531.752,348.772 532.497,350.858L540.103,348.142C538.848,344.628 536.581,341.37 533.443,338.985C528.433,335.102 522.13,333.986 516.46,335.498L518.54,343.302Z" style="fill:rgb(26,60,0);"/>
        <path d="M512.827,336.581C511.369,337.198 509.574,337.158 508.116,336.261C507.062,335.64 506.375,334.821 505.912,333.894L498.688,337.506C499.825,339.779 501.538,341.76 503.953,343.18C507.626,345.442 512.231,345.602 515.973,344.019L512.827,336.581Z" style="fill:rgb(26,60,0);"/>
        <path d="M362.142,324.423C373.457,327.184 382.991,335.913 386.198,347.94C386.565,349.226 386.829,350.355 387.003,351.571L394.997,350.429C394.771,348.845 394.435,347.374 393.983,345.791C390.009,330.887 378.143,320.016 364.058,316.577L362.142,324.423Z" style="fill:rgb(26,60,0);"/>
        <path d="M425.15,353.279C432.142,349.158 436.277,340.924 434.778,332.308C432.771,321.269 422.253,314.027 411.37,316.029C400.369,318.029 393.127,328.547 395.129,339.43C395.629,342.18 396.636,344.684 398.14,346.94L404.86,342.46C403.964,341.116 403.371,339.62 403.073,337.978C401.873,331.453 406.231,325.171 412.822,323.973C419.347,322.773 425.629,327.131 426.827,333.722C427.723,338.876 425.258,343.842 421.05,346.321L425.15,353.279Z" style="fill:rgb(26,60,0);"/>
        <path d="M355.242,318.322C345.227,325.528 343.014,339.57 350.341,349.584C352.192,352.053 354.392,354.104 356.823,355.562L360.977,348.638C359.408,347.696 358.008,346.347 356.83,344.777C352.186,338.43 353.573,329.472 359.958,324.878L355.242,318.322Z" style="fill:rgb(26,60,0);"/>
        <path d="M360.033,357.48C372.616,364.041 387.672,366.078 402.406,361.884L400.194,354.116C387.528,357.722 374.584,355.959 363.767,350.32L360.033,357.48Z" style="fill:rgb(26,60,0);"/>
        <path d="M296.49,308.031C295.359,305.158 294.794,301.989 294.967,298.704C295.575,286.177 306.269,276.559 318.835,277.169C331.351,277.898 340.941,288.479 340.333,300.996L340.33,301.052C340.05,305.538 338.474,309.666 336.04,313.093C339.557,317.927 341.522,323.978 341.132,330.412C340.74,337.87 337.391,344.505 332.257,349.157C333.56,351.718 334.207,354.664 334.032,357.727C333.507,367.04 325.642,374.128 316.273,373.732C306.96,373.207 299.872,365.342 300.268,355.988C300.322,354.957 300.486,353.926 300.736,352.923C291.842,348.056 286.046,338.365 286.667,327.596C287.07,319.644 290.834,312.724 296.49,308.031ZM332.268,300.577C332.646,292.506 326.44,285.701 318.404,285.233C310.331,284.841 303.425,291.023 303.032,299.112C302.876,302.076 303.659,304.883 305.062,307.223L307.097,310.613L303.75,312.718C298.625,315.941 295.063,321.475 294.731,328.033C294.236,336.612 299.514,344.203 307.186,347.008L311.434,348.561L309.412,352.606C308.847,353.735 308.403,355.071 308.334,356.37C308.128,361.258 311.84,365.393 316.67,365.666C321.558,365.872 325.693,362.16 325.969,357.27C326.104,354.898 325.314,352.655 323.823,351.029L320.626,347.541L324.573,344.932C329.443,341.712 332.738,336.261 333.069,329.956C333.399,324.525 331.335,319.508 327.879,315.888L325.198,313.079L327.9,310.29C330.35,307.761 332.024,304.369 332.268,300.577Z" style="fill:rgb(26,60,0);"/>
    </g>
    <path d="M526.052,325.848C523.572,324.519 521.493,322.42 520.259,319.745C516.993,312.93 519.94,304.824 526.755,301.559C533.57,298.293 541.676,301.24 544.941,308.055L544.956,308.086C546.628,311.653 546.641,315.566 545.215,318.95C545.326,319.138 545.432,319.335 545.535,319.541C548.001,324.638 545.875,330.89 540.659,333.335C535.562,335.801 529.31,333.675 526.807,328.334L526.773,328.253C526.439,327.452 526.197,326.65 526.052,325.848ZM537.652,311.532C536.314,308.756 533.025,307.509 530.245,308.841C527.46,310.176 526.207,313.47 527.566,316.308C528.25,317.789 529.569,318.802 531.05,319.201L534.585,320.153L533.983,323.764C533.912,324.192 534.015,324.613 534.184,325.039C534.733,326.14 536.056,326.59 537.186,326.044C538.325,325.51 538.799,324.162 538.288,323.106C538.095,322.72 537.834,322.445 537.545,322.155L535.083,319.694L537.155,316.897C538.284,315.372 538.492,313.34 537.652,311.532Z" style="fill:rgb(76,72,0);"/>
    <path d="M270.536,399.634L265.266,401.743L234.442,325.57L274.829,309.244L304.285,382.037L304.359,382.408C304.359,382.408 304.938,385.417 304.938,387.1C304.938,397.94 296.24,406.638 285.4,406.638C279.372,406.638 274.104,403.914 270.536,399.634ZM296.514,384.362L270.371,319.756L244.958,330.03L269.734,391.257L273.755,389.649L275.501,392.689C277.499,396.166 281.108,398.562 285.4,398.562C291.76,398.562 296.862,393.46 296.862,387.1C296.862,386.281 296.635,384.991 296.514,384.362Z" style="fill:rgb(65,18,20);"/>
    <path d="M339.521,282.886L342.471,287.632C344.384,290.71 345.462,294.373 345.462,298.2C345.462,302.952 343.876,307.204 341.125,310.705L338.912,313.522L343.813,318.423L346.272,317.46C385.647,302.044 433.664,300.721 477.654,311.325L480.793,304.009C443.121,279.646 389.483,270.826 344.953,281.575L339.521,282.886ZM452.916,298.538C421.699,285.579 384.489,281.625 351.762,288.33C352.915,291.422 353.538,294.763 353.538,298.2C353.538,301.195 353.088,304.049 352.241,306.729C383.199,296.48 418.503,294.021 452.916,298.538Z" style="fill:rgb(64,37,65);"/>
    <g>
        <path d="M247.462,263.263L247.462,257.824L362.18,258.9L361.996,276.573L274.527,275.813C276.709,279.527 277.938,283.865 277.938,288.6C277.938,302.941 266.323,314.438 252.1,314.438C237.877,314.438 226.262,302.823 226.262,288.6C226.262,275.948 235.372,265.425 247.462,263.263ZM255.538,265.976L255.538,270.837L251.603,270.937C241.995,271.181 234.338,278.993 234.338,288.6C234.338,298.377 242.323,306.362 252.1,306.362C261.877,306.362 269.862,298.459 269.862,288.6C269.862,283.017 267.362,278.239 263.317,275.084L260.71,273.051L263.415,267.64L354.004,268.427L354.02,266.9L255.538,265.976Z" style="fill:rgb(0,61,88);"/>
        <path d="M477.311,282.739L367.891,271.753L368.7,263.717L479.689,274.861L490.469,280.558C492.939,279.05 495.821,278.162 499,278.162C508.322,278.162 515.938,285.778 515.938,295.1C515.938,304.422 508.322,312.038 499,312.038C489.678,312.038 482.062,304.422 482.062,295.1C482.062,291.963 482.949,289.029 484.439,286.506L477.311,282.739ZM492.257,289.377C490.977,290.937 490.138,292.92 490.138,295.1C490.138,299.978 494.122,303.962 499,303.962C503.878,303.962 507.862,299.978 507.862,295.1C507.862,290.222 503.878,286.238 499,286.238C496.828,286.238 494.933,287.066 493.439,288.356L492.257,289.377Z" style="fill:rgb(0,61,88);"/>
    </g>
    <g>
        <path d="M229.764,368.472C231.642,364.921 235.34,362.562 239.6,362.562C245.718,362.562 250.738,367.582 250.738,373.7C250.738,375.447 250.356,377.085 249.655,378.55C251.47,381.616 252.54,385.144 252.637,388.896L252.638,389C252.638,400.424 243.324,409.738 231.9,409.738C228.94,409.738 226.141,409.09 223.614,407.967C221.102,410.789 217.469,412.538 213.4,412.538C205.894,412.538 199.662,406.448 199.662,398.8C199.662,391.915 204.785,386.103 211.535,385.188C213.239,376.308 220.639,369.412 229.764,368.472ZM244.561,389.059C244.476,386.077 243.396,383.328 241.636,381.109L239.488,378.401L241.833,375.861C242.361,375.289 242.662,374.537 242.662,373.7C242.662,372.018 241.282,370.638 239.6,370.638C238.084,370.638 236.836,371.729 236.576,373.202L235.988,376.538L232.6,376.538C232.37,376.538 231.982,376.484 231.712,376.44C224.823,376.54 219.238,382.187 219.238,389.1L219.238,394.067L214.536,393.283C214.157,393.22 213.779,393.138 213.4,393.138C210.248,393.138 207.738,395.706 207.738,398.8C207.738,401.952 210.306,404.462 213.4,404.462C215.735,404.462 217.713,403.052 218.589,401.009L220.551,396.431L224.624,399.298C226.671,400.739 229.17,401.662 231.9,401.662C238.856,401.662 244.53,396.007 244.561,389.059Z" style="fill:rgb(84,0,0);"/>
        <path d="M216.527,348.92L229.827,364.52L235.973,359.28L222.673,343.68L216.527,348.92Z" style="fill:rgb(84,0,0);"/>
    </g>
    <path d="M140.7,245.8L135,240.1L125.3,249.8L115.5,240.1L109.8,245.8L119.6,255.5L109.8,265.3L115.5,271L125.3,261.2L135,271L140.7,265.3L131,255.5L140.7,245.8Z" style="fill:rgb(76,72,0);fill-rule:nonzero;"/>
    <g>
        <path d="M578.571,292.465C578.571,307.165 573.4,320.9 565.1,330.5" style="fill:none;fill-rule:nonzero;stroke:black;stroke-width:7.48px;"/>
        <path d="M562.6,252.6C569.3,259.3 574.3,268.967 576.7,279.067" style="fill:none;fill-rule:nonzero;stroke:black;stroke-width:7.48px;"/>
        <path d="M292.9,237.3C269.7,237.2 246.6,238 223.8,239.6L223.8,252.4C246.7,250.8 269.7,250 292.9,250.1C395.2,250.5 492.6,263.2 585.9,294.9L585.9,282.1C492.7,250.5 395.3,237.7 292.9,237.3Z" style="fill:none;fill-rule:nonzero;stroke:black;stroke-width:8.08px;"/>
        <path d="M225.8,187.9C241.2,200.6 250.636,221.797 250.777,238.106" style="fill:none;fill-rule:nonzero;stroke:black;stroke-width:8.08px;"/>
        <path d="M268.4,191.8C282.7,203.6 291.7,225.193 291.5,237.242" style="fill:none;fill-rule:nonzero;stroke:black;stroke-width:8.08px;"/>
        <path d="M310.9,194.8C324.4,205.9 332.635,224.118 332.7,238.03" style="fill:none;fill-rule:nonzero;stroke:black;stroke-width:8.08px;"/>
        <path d="M353.3,200.3C366.1,210.8 373.935,228.595 373.9,240.667" style="fill:none;fill-rule:nonzero;stroke:black;stroke-width:8.08px;"/>
        <path d="M395.8,206.2C407.6,215.9 414.9,228.45 414.8,244.05" style="fill:none;fill-rule:nonzero;stroke:black;stroke-width:8.08px;"/>
        <path d="M438.2,216.7C449.2,225.7 455.921,240.901 455.9,250.151" style="fill:none;fill-rule:nonzero;stroke:black;stroke-width:8.08px;"/>
        <path d="M480.6,226.4C490.7,234.7 497.061,247.936 497,257.951" style="fill:none;fill-rule:nonzero;stroke:black;stroke-width:8.08px;"/>
        <path d="M522.9,239.6C532.3,247.3 537.228,258.386 537.207,267.633" style="fill:none;fill-rule:nonzero;stroke:black;stroke-width:8.08px;"/>
    </g>
    <g>
        <g>
            <path d="M139.2,316.7C139.2,314.1 141.3,312 143.9,312" style="fill:none;fill-rule:nonzero;stroke:rgb(0,105,145);stroke-width:2.02px;"/>
            <path d="M78.5,328.5L78.5,312" style="fill:none;fill-rule:nonzero;stroke:rgb(0,105,145);stroke-width:2.02px;"/>
            <path d="M81.3,312L81.3,328.5" style="fill:none;fill-rule:nonzero;stroke:rgb(0,105,145);stroke-width:2.02px;"/>
            <path d="M78.5,310.3L78.5,309.7C78.5,308.4 79,307.2 79.9,306.4" style="fill:none;fill-rule:nonzero;stroke:rgb(0,105,145);stroke-width:2.02px;"/>
            <path d="M86.8,328.5L86.8,318.1" style="fill:none;fill-rule:nonzero;stroke:rgb(0,105,145);stroke-width:2.02px;"/>
            <path d="M97.5,318.1L97.5,328.5" style="fill:none;fill-rule:nonzero;stroke:rgb(0,105,145);stroke-width:2.02px;"/>
            <path d="M86.8,316.7C86.8,314.1 88.9,312 91.5,312" style="fill:none;fill-rule:nonzero;stroke:rgb(0,105,145);stroke-width:2.02px;"/>
            <path d="M92.8,312C95.4,312 97.5,314.1 97.5,316.7" style="fill:none;fill-rule:nonzero;stroke:rgb(0,105,145);stroke-width:2.02px;"/>
            <path d="M118.3,318.1L118.3,321.7" style="fill:none;fill-rule:nonzero;stroke:rgb(0,105,145);stroke-width:2.02px;"/>
            <path d="M139.2,318.1L139.2,321.7" style="fill:none;fill-rule:nonzero;stroke:rgb(0,105,145);stroke-width:2.02px;"/>
            <path d="M149.9,328.8L149.9,316.6C149.9,314 147.8,311.9 145.2,311.9" style="fill:none;fill-rule:nonzero;stroke:rgb(0,105,145);stroke-width:2.02px;"/>
            <path d="M94.7,328.5L94.7,317.2C94.7,315.8 93.6,314.6 92.1,314.6C90.7,314.6 89.5,315.7 89.5,317.2L89.5,328.5" style="fill:none;fill-rule:nonzero;stroke:rgb(0,105,145);stroke-width:2.02px;"/>
            <path d="M113.3,312L113.3,321.7" style="fill:none;fill-rule:nonzero;stroke:rgb(0,105,145);stroke-width:2.02px;"/>
            <path d="M127.1,325L123.5,325C122.1,325 120.9,323.9 120.9,322.4C120.9,321 122,319.8 123.5,319.8" style="fill:none;fill-rule:nonzero;stroke:rgb(0,105,145);stroke-width:2.02px;"/>
            <path d="M127.1,319.9L123.5,319.9" style="fill:none;fill-rule:nonzero;stroke:rgb(0,105,145);stroke-width:2.02px;"/>
            <path d="M127.1,327.8L123,327.8C120.4,327.8 118.3,325.7 118.3,323.1" style="fill:none;fill-rule:nonzero;stroke:rgb(0,105,145);stroke-width:2.02px;"/>
            <path d="M102.5,321.7L102.5,312" style="fill:none;fill-rule:nonzero;stroke:rgb(0,105,145);stroke-width:2.02px;"/>
            <path d="M113.3,323.2C113.3,325.8 111.2,327.9 108.6,327.9" style="fill:none;fill-rule:nonzero;stroke:rgb(0,105,145);stroke-width:2.02px;"/>
            <path d="M107.2,327.8C104.6,327.8 102.5,325.7 102.5,323.1" style="fill:none;fill-rule:nonzero;stroke:rgb(0,105,145);stroke-width:2.02px;"/>
            <path d="M105.3,312L105.3,322.6C105.3,324 106.4,325.2 107.9,325.2C109.3,325.2 110.5,324.1 110.5,322.6L110.5,312" style="fill:none;fill-rule:nonzero;stroke:rgb(0,105,145);stroke-width:2.02px;"/>
            <path d="M149.9,330.3C149.9,332.9 147.8,335 145.2,335" style="fill:none;fill-rule:nonzero;stroke:rgb(0,105,145);stroke-width:2.02px;"/>
            <path d="M143.8,335C141.2,335 139.1,332.9 139.1,330.3" style="fill:none;fill-rule:nonzero;stroke:rgb(0,105,145);stroke-width:2.02px;"/>
            <path d="M143.8,327.8C141.2,327.8 139.1,325.7 139.1,323.1" style="fill:none;fill-rule:nonzero;stroke:rgb(0,105,145);stroke-width:2.02px;"/>
            <path d="M142,329.7C142,331.1 143.1,332.3 144.6,332.3C146,332.3 147.2,331.2 147.2,329.7L147.2,327.8L145.4,327.8" style="fill:none;fill-rule:nonzero;stroke:rgb(0,105,145);stroke-width:2.02px;"/>
            <path d="M147.1,317.3C147.1,315.9 146,314.7 144.5,314.7C143.1,314.7 141.9,315.8 141.9,317.3L141.9,322.6C141.9,324 143,325.2 144.5,325.2C145.9,325.2 147.1,324.1 147.1,322.6L147.1,317.3Z" style="fill:none;fill-rule:nonzero;stroke:rgb(0,105,145);stroke-width:2.02px;"/>
            <path d="M118.3,316.7C118.3,314.1 120.4,312 123,312L127.2,312" style="fill:none;fill-rule:nonzero;stroke:rgb(0,105,145);stroke-width:2.02px;"/>
            <path d="M123.5,319.9C122.1,319.9 120.9,318.8 120.9,317.3C120.9,315.9 122,314.7 123.5,314.7L127.1,314.7" style="fill:none;fill-rule:nonzero;stroke:rgb(0,105,145);stroke-width:2.02px;"/>
            <path d="M81.3,310.3C81.3,309.6 81.6,309 82,308.5" style="fill:none;fill-rule:nonzero;stroke:rgb(0,105,145);stroke-width:2.02px;"/>
            <path d="M131.5,328.5L131.5,312" style="fill:none;fill-rule:nonzero;stroke:rgb(0,105,145);stroke-width:2.02px;"/>
            <path d="M134.3,312L134.3,328.5" style="fill:none;fill-rule:nonzero;stroke:rgb(0,105,145);stroke-width:2.02px;"/>
            <path d="M131.5,310.3L131.5,309.7C131.5,308.4 132,307.2 132.9,306.4" style="fill:none;fill-rule:nonzero;stroke:rgb(0,105,145);stroke-width:2.02px;"/>
            <path d="M134.3,310.3C134.3,309.6 134.6,309 135,308.5" style="fill:none;fill-rule:nonzero;stroke:rgb(0,105,145);stroke-width:2.02px;"/>
            <path d="M162,318.5L162,322" style="fill:none;fill-rule:nonzero;stroke:rgb(0,105,145);stroke-width:2.02px;"/>
            <path d="M170.9,325.4L167.3,325.4C165.9,325.4 164.7,324.3 164.7,322.8C164.7,321.4 165.8,320.2 167.3,320.2" style="fill:none;fill-rule:nonzero;stroke:rgb(0,105,145);stroke-width:2.02px;"/>
            <path d="M170.9,320.2L167.3,320.2" style="fill:none;fill-rule:nonzero;stroke:rgb(0,105,145);stroke-width:2.02px;"/>
            <path d="M170.9,328.2L166.7,328.2C164.1,328.2 162,326.1 162,323.5" style="fill:none;fill-rule:nonzero;stroke:rgb(0,105,145);stroke-width:2.02px;"/>
            <path d="M162,317C162,314.4 164.1,312.3 166.7,312.3L170.9,312.3" style="fill:none;fill-rule:nonzero;stroke:rgb(0,105,145);stroke-width:2.02px;"/>
            <path d="M167.3,320.2C165.9,320.2 164.7,319.1 164.7,317.6C164.7,316.2 165.8,315 167.3,315L170.9,315" style="fill:none;fill-rule:nonzero;stroke:rgb(0,105,145);stroke-width:2.02px;"/>
            <path d="M154.7,328.5L154.7,303.3" style="fill:none;fill-rule:nonzero;stroke:rgb(0,105,145);stroke-width:2.02px;"/>
            <path d="M157.5,303.3L157.5,328.5" style="fill:none;fill-rule:nonzero;stroke:rgb(0,105,145);stroke-width:2.02px;"/>
        </g>
    </g>
</svg>
