<?xml version="1.0" encoding="UTF-8" standalone="no"?>
<!DOCTYPE svg PUBLIC "-//W3C//DTD SVG 1.1//EN" "http://www.w3.org/Graphics/SVG/1.1/DTD/svg11.dtd">
<svg width="100%" height="100%" viewBox="0 0 300 300" version="1.1" xmlns="http://www.w3.org/2000/svg" xmlns:xlink="http://www.w3.org/1999/xlink" xml:space="preserve" xmlns:serif="http://www.serif.com/" style="fill-rule:evenodd;clip-rule:evenodd;stroke-linejoin:round;stroke-miterlimit:2;">
    <g transform="matrix(1,0,0,1,10,10)">
        <g>
            <g transform="matrix(2.1875,0,0,2.1875,0,0)">
                <circle cx="64" cy="64" r="64" style="fill:rgb(38,55,64);"/>
            </g>
            <g transform="matrix(2.1875,0,0,2.1875,-0.190013,0.350029)">
                <path d="M3.902,86.052C12.889,110.533 36.404,128 64,128C64.688,128 65.368,127.97 66.051,127.948C57.064,103.467 33.549,86 5.953,86C5.266,86 4.585,86.03 3.902,86.052Z" style="fill:rgb(230,230,230);fill-rule:nonzero;"/>
            </g>
            <g transform="matrix(2.1875,0,0,2.1875,0,0)">
                <path d="M66.229,40.395C64.258,37.923 58.726,39.1 52.396,43.335C47.997,46.439 40.666,59.564 39.871,62.625C39.076,65.686 44.773,64.932 45.992,64.215C47.921,63.082 53.367,54.695 53.911,53.858C54.456,53.02 58.06,52.975 60.828,52.387C61.621,49.326 65.141,42.072 66.229,40.395Z" style="fill:rgb(204,88,76);fill-rule:nonzero;"/>
                <path d="M88.034,54.557C91.096,55.351 92.271,60.884 90.974,68.389C89.926,73.671 80.918,85.707 78.448,87.678C75.974,89.652 74.347,84.139 74.505,82.736C74.756,80.511 80.202,72.127 80.747,71.288C81.292,70.45 79.865,67.139 79.275,64.372C81.749,62.397 86.945,56.233 88.034,54.557Z" style="fill:rgb(204,88,76);fill-rule:nonzero;"/>
                <path d="M107.633,0.51C105.115,-1.124 88.768,0.184 76.238,19.473C65.89,35.409 59.987,51.843 59.736,54.065C62.253,55.701 68.962,60.056 68.962,60.056C68.962,60.056 75.672,64.412 78.188,66.046C80.118,64.914 93.274,51.996 103.08,36.9C115.604,17.609 110.146,2.145 107.633,0.51Z" style="fill:rgb(230,230,230);fill-rule:nonzero;"/>
                <circle cx="91.292" cy="25.67" r="10" style="fill:rgb(38,55,64);"/>
                <path d="M88.023,30.702C85.25,28.898 84.458,25.177 86.258,22.402C88.062,19.627 91.782,18.836 94.56,20.636C97.332,22.439 98.123,26.16 96.324,28.937C94.521,31.713 90.801,32.504 88.023,30.702Z" style="fill:rgb(194,226,242);fill-rule:nonzero;"/>
                <path d="M101.096,10.574C104.176,12.574 107.545,13.773 110.959,14.232C111.311,6.554 109.023,1.414 107.633,0.507C106.238,-0.395 100.612,-0.393 93.741,3.049C95.549,5.982 98.016,8.573 101.096,10.574Z" style="fill:rgb(204,88,76);fill-rule:nonzero;"/>
                <g>
                    <path d="M76.598,72.167C75.998,73.09 74.753,73.355 73.83,72.756L55.38,60.776C54.457,60.175 54.192,58.93 54.791,58.007L56.971,54.653C57.571,53.731 58.815,53.465 59.739,54.065L78.188,66.047C79.112,66.647 79.376,67.891 78.778,68.816L76.598,72.167Z" style="fill:rgb(204,88,76);fill-rule:nonzero;"/>
                </g>
                <path d="M62.59,60.688C61.99,61.613 61.254,62.785 60.486,64.09L69.565,69.986C70.446,68.753 71.216,67.601 71.817,66.677C72.418,65.753 73.153,64.581 73.921,63.277L64.844,57.381C63.961,58.613 63.189,59.763 62.59,60.688Z" style="fill:rgb(191,83,71);fill-rule:nonzero;"/>
                <path d="M57.057,61.863C50.44,72.051 42.108,92.694 46.508,95.551C50.906,98.408 66.374,82.403 72.992,72.21L57.057,61.863Z" style="fill:rgb(255,212,100);fill-rule:nonzero;"/>
                <path d="M58.734,62.952C52.117,73.14 49.569,83.232 53.042,85.487C56.516,87.743 64.697,81.309 71.314,71.122L58.734,62.952Z" style="fill:rgb(242,178,85);fill-rule:nonzero;"/>
                <g transform="matrix(-0.8387,-0.5446,0.5446,-0.8387,88.9017,153.704)">
                    <ellipse cx="67.213" cy="63.687" rx="3.5" ry="16.999" style="fill:rgb(204,88,76);"/>
                </g>
            </g>
            <g transform="matrix(2.1875,0,0,2.1875,0,0)">
                <g transform="matrix(-0.9264,-0.3765,0.3765,-0.9264,7.8562,194.498)">
                    <ellipse cx="22.933" cy="96.481" rx="6" ry="4.5" style="fill:rgb(204,204,204);"/>
                </g>
                <path d="M23.26,100.669C20.19,99.422 18.459,96.544 19.395,94.241C19.93,92.923 21.235,92.097 22.819,91.851C20.381,91.501 18.145,92.396 17.395,94.241C16.459,96.544 18.19,99.422 21.26,100.669C22.573,101.202 23.906,101.33 25.089,101.148C24.482,101.06 23.869,100.917 23.26,100.669Z" style="fill:rgb(179,179,179);fill-rule:nonzero;"/>
            </g>
            <g transform="matrix(2.1875,0,0,2.1875,0,0)">
                <g transform="matrix(-0.7008,-0.7133,0.7133,-0.7008,-5.6871,199.406)">
                    <ellipse cx="38.973" cy="100.896" rx="3.936" ry="2.951" style="fill:rgb(204,204,204);"/>
                </g>
                <path d="M38.051,103.457C36.53,101.908 36.238,99.725 37.401,98.582C38.065,97.927 39.065,97.771 40.084,98.035C38.708,97.19 37.129,97.143 36.197,98.058C35.034,99.203 35.326,101.384 36.848,102.934C37.499,103.597 38.27,104.023 39.03,104.219C38.686,104.012 38.354,103.766 38.051,103.457Z" style="fill:rgb(179,179,179);fill-rule:nonzero;"/>
            </g>
            <g transform="matrix(2.1875,0,0,2.1875,0,0)">
                <g transform="matrix(-0.9624,-0.2718,0.2718,-0.9624,42.0374,229.551)">
                    <ellipse cx="36.917" cy="111.864" rx="5.968" ry="4.476" style="fill:rgb(204,204,204);"/>
                </g>
                <path d="M37.711,115.956C34.542,115.06 32.516,112.404 33.19,110.025C33.572,108.663 34.772,107.707 36.311,107.289C33.864,107.211 31.749,108.339 31.21,110.245C30.537,112.623 32.564,115.28 35.735,116.175C37.091,116.559 38.423,116.538 39.574,116.229C38.967,116.209 38.342,116.135 37.711,115.956Z" style="fill:rgb(179,179,179);fill-rule:nonzero;"/>
            </g>
            <g transform="matrix(2.1875,0,0,2.1875,0,0)">
                <path d="M27.953,21C27.953,25 26.953,26 22.953,26C26.953,26 27.953,27 27.953,31C27.953,27 28.953,26 32.953,26C28.953,26 27.953,25 27.953,21Z" style="fill:rgb(255,212,100);fill-rule:nonzero;"/>
            </g>
            <g transform="matrix(2.1875,0,0,2.1875,0,0)">
                <path d="M14.953,50C14.953,54 13.953,55 9.953,55C13.953,55 14.953,56 14.953,60C14.953,56 15.953,55 19.953,55C15.953,55 14.953,54 14.953,50Z" style="fill:rgb(255,212,100);fill-rule:nonzero;"/>
            </g>
            <g transform="matrix(2.1875,0,0,2.1875,0,0)">
                <path d="M28.953,68C28.953,72 27.953,73 23.953,73C27.953,73 28.953,74 28.953,78C28.953,74 29.953,73 33.953,73C29.953,73 28.953,72 28.953,68Z" style="fill:rgb(255,212,100);fill-rule:nonzero;"/>
            </g>
            <g transform="matrix(2.1875,0,0,2.1875,0,0)">
                <path d="M81.953,101C81.953,105 80.953,106 76.953,106C80.953,106 81.953,107 81.953,111C81.953,107 82.953,106 86.953,106C82.953,106 81.953,105 81.953,101Z" style="fill:rgb(255,212,100);fill-rule:nonzero;"/>
            </g>
            <g transform="matrix(2.1875,0,0,2.1875,0,0)">
                <path d="M117.953,78C117.953,82 116.953,83 112.953,83C116.953,83 117.953,84 117.953,88C117.953,84 118.953,83 122.953,83C118.953,83 117.953,82 117.953,78Z" style="fill:rgb(255,212,100);fill-rule:nonzero;"/>
            </g>
            <g transform="matrix(2.1875,0,0,2.1875,0,0)">
                <path d="M114.953,43C114.953,47 113.953,48 109.953,48C113.953,48 114.953,49 114.953,53C114.953,49 115.953,48 119.953,48C115.953,48 114.953,47 114.953,43Z" style="fill:rgb(255,212,100);fill-rule:nonzero;"/>
            </g>
            <g transform="matrix(2.1875,0,0,2.1875,0,0)">
                <path d="M64.953,7C64.953,11 63.953,12 59.953,12C63.953,12 64.953,13 64.953,17C64.953,13 65.953,12 69.953,12C65.953,12 64.953,11 64.953,7Z" style="fill:rgb(255,212,100);fill-rule:nonzero;"/>
            </g>
            <g transform="matrix(2.1875,0,0,2.1875,0,0)">
                <path d="M47.953,28C47.953,32 46.953,33 42.953,33C46.953,33 47.953,34 47.953,38C47.953,34 48.953,33 52.953,33C48.953,33 47.953,32 47.953,28Z" style="fill:rgb(255,212,100);fill-rule:nonzero;"/>
            </g>
        </g>
    </g>
</svg>
